<svg id="Capa_1" data-name="Capa 1" xmlns="http://www.w3.org/2000/svg" viewBox="0 0 1080 1080"><defs><style>.cls-1{fill:#fff;}</style></defs><path class="cls-1" d="M459.54,719.33q24.6-5.1,42.71-19A104.86,104.86,0,0,0,529,670.64q16.82-26.71,16.82-60.29,0-32.55-14.72-55.37t-43.67-33.35q19.05-9.72,28.85-21.53,17.48-21,17.5-55.65,0-33.58-17.36-57.69-28.82-39.21-97.94-40.25H235.82v378H406.13A261.72,261.72,0,0,0,459.54,719.33ZM311.2,412.15h82.23q27.17,0,44.67,5.91,20.32,8.44,20.31,34.86,0,23.85-15.37,33.21t-40,9.36H311.2Zm0,246.67V558.07h93c16.26.16,28.82,2.29,37.79,6.4q24.08,11,24.08,40.5,0,34.86-24.85,47.2c-9.11,4.44-21.89,6.65-38.25,6.65Z"/><path class="cls-1" d="M609.84,699.56Q652.5,734,708.28,734q67.62,0,105.14-40.78,24.18-25.66,27.11-50.51H765.92q-6.51,12.3-15,19.22-15.6,12.83-40.57,12.83-23.56,0-40.28-10.52-27.54-16.94-29.23-59H844.34q.54-36.18-2.41-55.46-5.07-32.87-22.27-57.77-19-28.23-48.3-41.35t-65.73-13.08q-61.41,0-99.93,38.75T567.2,587.66Q567.2,665.17,609.84,699.56Zm52.21-185.8q15.51-15.94,43.61-15.95,25.88,0,43.36,15T768.49,557H642.58Q646.57,529.74,662.05,513.76Z"/><rect class="cls-1" x="618.76" y="368.24" width="164.25" height="38.14"/></svg>