<svg id="Capa_1" data-name="Capa 1" xmlns="http://www.w3.org/2000/svg" viewBox="0 0 1080 1080"><defs><style>.cls-1{fill:#fff;}</style></defs><path class="cls-1" d="M540,297.24c79.07,0,88.43.3,119.65,1.73,28.86,1.31,44.55,6.14,55,10.2a98,98,0,0,1,56.18,56.19c4.06,10.44,8.88,26.11,10.2,55,1.42,31.22,1.73,40.59,1.73,119.65s-.31,88.42-1.73,119.64c-1.32,28.87-6.14,44.55-10.2,55a98,98,0,0,1-56.18,56.2c-10.44,4.05-26.13,8.88-55,10.19-31.22,1.42-40.57,1.72-119.65,1.72s-88.42-.3-119.64-1.72c-28.87-1.31-44.55-6.14-55-10.19a98,98,0,0,1-56.19-56.2c-4.06-10.43-8.88-26.11-10.2-55-1.42-31.22-1.72-40.58-1.72-119.64s.3-88.43,1.72-119.65c1.32-28.87,6.14-44.54,10.2-55a97.94,97.94,0,0,1,56.19-56.19c10.43-4.06,26.11-8.89,55-10.2,31.22-1.43,40.59-1.73,119.64-1.73m0-53.35c-80.41,0-90.49.35-122.07,1.78s-53,6.45-71.87,13.77a151.36,151.36,0,0,0-86.6,86.6c-7.32,18.83-12.33,40.35-13.76,71.87S243.9,459.57,243.9,540s.34,90.49,1.78,122.08,6.44,53,13.76,71.87a151.44,151.44,0,0,0,86.6,86.6c18.83,7.31,40.35,12.32,71.87,13.76s41.66,1.77,122.07,1.77,90.5-.33,122.09-1.77,53-6.45,71.86-13.76a151.44,151.44,0,0,0,86.6-86.6c7.32-18.84,12.33-40.36,13.77-71.87s1.77-41.67,1.77-122.08-.34-90.5-1.77-122.08-6.45-53-13.77-71.87a151.36,151.36,0,0,0-86.6-86.6c-18.83-7.32-40.35-12.33-71.86-13.77S620.4,243.89,540,243.89"/><path class="cls-1" d="M540,387.94A152,152,0,1,0,692,540a152,152,0,0,0-152-152m0,250.74A98.7,98.7,0,1,1,638.68,540,98.69,98.69,0,0,1,540,638.68"/><path class="cls-1" d="M733.57,381.93A35.53,35.53,0,1,1,698,346.4a35.53,35.53,0,0,1,35.53,35.53"/></svg>