<svg id="Capa_1" data-name="Capa 1" xmlns="http://www.w3.org/2000/svg" viewBox="0 0 1080 1080"><defs><style>.cls-1{fill:#fff;fill-rule:evenodd;}</style></defs><path class="cls-1" d="M836,525c-3.94-156-132.48-281.31-290.7-281.31-156.31,0-283.75,122.41-290.56,276-.13,4.22-.27,8.44-.27,12.66a286.5,286.5,0,0,0,41.66,149.1L243.74,836.23,404.82,785a291.16,291.16,0,0,0,140.51,36C706,821,836.17,691.76,836.17,532.32,836.17,529.87,836.17,527.42,836,525ZM545.33,775a243.57,243.57,0,0,1-134.52-40.17l-93.95,30,30.5-90.14a240.19,240.19,0,0,1-46.57-142.29A227.27,227.27,0,0,1,302,508.77C314,386,418.57,289.68,545.33,289.68c128.4,0,233.93,98.72,243.73,223.71.54,6.27.81,12.53.81,18.93C789.87,666.17,680.13,775,545.33,775Z"/><path class="cls-1" d="M678.64,590.6c-7.22-3.54-42.22-20.7-48.75-23s-11.31-3.54-16.07,3.54-18.52,23-22.6,27.64-8.3,5.31-15.52,1.77-30.09-10.9-57.32-35.13c-21.11-18.66-35.54-41.8-39.63-48.88s-.4-10.9,3.13-14.44c3.27-3.26,7.09-8.3,10.76-12.38,1-1.23,1.77-2.32,2.59-3.41a81,81,0,0,0,4.49-8.45c2.45-4.76,1.23-8.84-.54-12.38s-16.07-38.4-22.07-52.56-11.83-11.71-16.06-11.71-8.85-.68-13.61-.68a26.38,26.38,0,0,0-19.07,8.85c-6.53,7.08-24.91,24.24-24.91,59.09a90.17,90.17,0,0,0,3.67,24.1c7.22,24.92,22.74,45.48,25.47,49,3.53,4.62,49.28,78.41,121.72,106.88C626.89,676.65,626.89,667.25,640,666S682.18,649,688,632.4s6-30.64,4.22-33.63S685.71,594.14,678.64,590.6Z"/></svg>