<svg id="Capa_1" data-name="Capa 1" xmlns="http://www.w3.org/2000/svg" viewBox="0 0 1080 1080"><defs><style>.cls-1{fill:#fff;}</style></defs><path class="cls-1" d="M953.92,330.48a108.63,108.63,0,0,0-76.43-76.93c-67.42-18.18-337.76-18.18-337.76-18.18s-270.34,0-337.76,18.18a108.65,108.65,0,0,0-76.43,76.93c-18.06,67.85-18.06,209.43-18.06,209.43s0,141.57,18.06,209.43A108.65,108.65,0,0,0,202,826.27c67.42,18.18,337.76,18.18,337.76,18.18s270.34,0,337.76-18.18a108.63,108.63,0,0,0,76.43-76.93C972,681.48,972,539.91,972,539.91S972,398.33,953.92,330.48Zm-502.6,338V411.37l226,128.54Z"/></svg>