<svg xmlns="http://www.w3.org/2000/svg" viewBox="0 0 531.28 367.54"><defs><style>.cls-1{fill:#fff;}.cls-2,.cls-4,.cls-6{fill:#0e123b;}.cls-2,.cls-3,.cls-4,.cls-5,.cls-6,.cls-7{stroke:#2dea8f;}.cls-2,.cls-3,.cls-6,.cls-7{stroke-miterlimit:10;}.cls-2,.cls-3,.cls-4,.cls-5{stroke-width:3px;}.cls-3,.cls-5,.cls-7{fill:#2dea8f;}.cls-4,.cls-5{stroke-linejoin:round;}.cls-5{stroke-linecap:round;}.cls-6,.cls-7{stroke-width:5px;}</style></defs><g id="Capa_2" data-name="Capa 2"><g id="Capa_1-2" data-name="Capa 1"><path class="cls-1" d="M19.67,344.94a3.76,3.76,0,0,1,1.47,1.95v-6.3h2.29V355.3H21.14v-2.55a3.76,3.76,0,0,1-1.47,1.95,4.32,4.32,0,0,1-2.54.73,4.83,4.83,0,0,1-2.55-.67,4.58,4.58,0,0,1-1.76-1.95,7.3,7.3,0,0,1,0-6,4.58,4.58,0,0,1,1.76-1.95,4.84,4.84,0,0,1,2.55-.68A4.33,4.33,0,0,1,19.67,344.94Zm-4.26,2.22a4.35,4.35,0,0,0,0,5.3,3.13,3.13,0,0,0,2.42,1,3.25,3.25,0,0,0,1.7-.45,3.17,3.17,0,0,0,1.2-1.26,4.43,4.43,0,0,0,0-3.81,3.13,3.13,0,0,0-1.2-1.27,3.25,3.25,0,0,0-1.7-.45A3.13,3.13,0,0,0,15.41,347.16Z"/><path class="cls-1" d="M26.23,340.21a1.5,1.5,0,0,1,1.06-.38,1.51,1.51,0,0,1,1.06.38,1.25,1.25,0,0,1,.41,1,1.2,1.2,0,0,1-.41.94,1.54,1.54,0,0,1-1.06.35,1.53,1.53,0,0,1-1.06-.35,1.21,1.21,0,0,1-.39-.94A1.27,1.27,0,0,1,26.23,340.21Zm2.19,4.13v11H26.15v-11Z"/><path class="cls-1" d="M37.85,345.19a4.11,4.11,0,0,1,1.42,2.63H37.13a2.32,2.32,0,0,0-.77-1.44,2.46,2.46,0,0,0-1.66-.55,2,2,0,0,0-1.32.41,1.39,1.39,0,0,0-.47,1.1,1.08,1.08,0,0,0,.34.84,2.41,2.41,0,0,0,.84.5,13.16,13.16,0,0,0,1.45.39,14.71,14.71,0,0,1,2,.58,3.31,3.31,0,0,1,1.32.94,2.66,2.66,0,0,1,.54,1.76,2.75,2.75,0,0,1-1,2.23,4.32,4.32,0,0,1-2.81.85,5.31,5.31,0,0,1-3.31-.95,3.89,3.89,0,0,1-1.52-2.66h2.2a2.09,2.09,0,0,0,.8,1.45,2.83,2.83,0,0,0,1.83.55,1.85,1.85,0,0,0,1.28-.42,1.42,1.42,0,0,0,.46-1.09,1.18,1.18,0,0,0-.35-.91,2.5,2.5,0,0,0-.9-.53q-.54-.18-1.47-.39a17,17,0,0,1-1.94-.55,3.08,3.08,0,0,1-1.27-.91,2.54,2.54,0,0,1-.53-1.7,2.77,2.77,0,0,1,1.05-2.25,4.37,4.37,0,0,1,2.89-.87A4.59,4.59,0,0,1,37.85,345.19Z"/><path class="cls-1" d="M51.76,350.27H43.33a3.45,3.45,0,0,0,.93,2.5,3.1,3.1,0,0,0,2.17.82,3.21,3.21,0,0,0,1.92-.58,2.39,2.39,0,0,0,1-1.53h2.43A4.67,4.67,0,0,1,49,354.93a6,6,0,0,1-2.48.5,5.7,5.7,0,0,1-2.81-.67,4.75,4.75,0,0,1-1.92-1.95,6.74,6.74,0,0,1,0-6,4.75,4.75,0,0,1,1.92-1.95,6.19,6.19,0,0,1,5.62,0,4.59,4.59,0,0,1,1.85,1.83,5.24,5.24,0,0,1,.65,2.59A5.63,5.63,0,0,1,51.76,350.27Zm-2.58-2.84a2.54,2.54,0,0,0-1.11-1.07,3.48,3.48,0,0,0-1.54-.35,3.17,3.17,0,0,0-2.23.82,3.32,3.32,0,0,0-1,2.4h6.22A3.38,3.38,0,0,0,49.18,347.43Z"/><path class="cls-1" d="M63.2,345.4a4.94,4.94,0,0,1,1.16,3.51v6.39H62.09v-6.15a3.19,3.19,0,0,0-.75-2.27,2.71,2.71,0,0,0-2.07-.81,2.85,2.85,0,0,0-2.17.87,3.56,3.56,0,0,0-.81,2.53v5.83H54v-11h2.27v2.41a3.67,3.67,0,0,1,1.47-1.91,4.25,4.25,0,0,1,2.38-.68A3.94,3.94,0,0,1,63.2,345.4ZM58.64,341c.19.09.44.22.73.39a2.8,2.8,0,0,0,.54.33,1.4,1.4,0,0,0,.53.11.75.75,0,0,0,.57-.24,1.38,1.38,0,0,0,.31-.7h1.19a3,3,0,0,1-.73,1.73,1.88,1.88,0,0,1-1.42.58,1.91,1.91,0,0,1-.74-.14,5,5,0,0,1-.73-.4c-.25-.14-.44-.25-.57-.31a1,1,0,0,0-.44-.08c-.49,0-.78.31-.86.93H55.81c.25-1.55,1-2.33,2.15-2.33A1.75,1.75,0,0,1,58.64,341Z"/><path class="cls-1" d="M74.87,344.88a4.85,4.85,0,0,1,2,1.95,6.57,6.57,0,0,1,0,6,4.85,4.85,0,0,1-2,1.95,6,6,0,0,1-2.86.67,5.94,5.94,0,0,1-2.85-.67,4.88,4.88,0,0,1-2-2,6.47,6.47,0,0,1,0-6,4.91,4.91,0,0,1,2-1.95A5.94,5.94,0,0,1,72,344.2,6,6,0,0,1,74.87,344.88Zm-4.47,1.69a2.9,2.9,0,0,0-1.18,1.22,4.78,4.78,0,0,0,0,4,3,3,0,0,0,1.18,1.21,3.44,3.44,0,0,0,3.22,0,3,3,0,0,0,1.18-1.21,4.78,4.78,0,0,0,0-4,2.9,2.9,0,0,0-1.18-1.22,3.44,3.44,0,0,0-3.22,0Z"/><path class="cls-1" d="M86.58,341.26v8.33a4,4,0,0,0,.83,2.78,3.35,3.35,0,0,0,4.61,0,4,4,0,0,0,.82-2.78v-8.33h2.27v8.33A5.89,5.89,0,0,1,93.62,354a5.35,5.35,0,0,1-3.94,1.48A5.22,5.22,0,0,1,85.79,354a5.89,5.89,0,0,1-1.48-4.36v-8.33Z"/><path class="cls-1" d="M100,341.26v14H97.75v-14Z"/><path class="cls-1" d="M418.21,338.52h-8.43a3.43,3.43,0,0,0,.93,2.5,3.05,3.05,0,0,0,2.17.82,3.13,3.13,0,0,0,1.92-.58,2.37,2.37,0,0,0,1-1.53h2.43a4.67,4.67,0,0,1-2.73,3.45,5.88,5.88,0,0,1-2.48.51,5.7,5.7,0,0,1-2.81-.68,4.75,4.75,0,0,1-1.92-1.95,6.74,6.74,0,0,1,0-6,4.75,4.75,0,0,1,1.92-1.95,6.27,6.27,0,0,1,5.62,0,4.72,4.72,0,0,1,1.85,1.83,5.27,5.27,0,0,1,.65,2.59A5.54,5.54,0,0,1,418.21,338.52Zm-2.58-2.83a2.51,2.51,0,0,0-1.11-1.08,3.44,3.44,0,0,0-1.54-.34,3.2,3.2,0,0,0-2.23.81,3.32,3.32,0,0,0-1,2.4H416A3.32,3.32,0,0,0,415.63,335.69Z"/><path class="cls-1" d="M427.41,333.19a3.86,3.86,0,0,1,1.47,1.95v-6.3h2.29v14.71h-2.29V341a3.86,3.86,0,0,1-1.47,1.95,4.33,4.33,0,0,1-2.54.74,4.87,4.87,0,0,1-2.56-.68,4.64,4.64,0,0,1-1.76-1.95,7.41,7.41,0,0,1,0-6,4.64,4.64,0,0,1,1.76-1.95,4.87,4.87,0,0,1,2.56-.67A4.32,4.32,0,0,1,427.41,333.19Zm-4.26,2.22a4.33,4.33,0,0,0,0,5.31,3.16,3.16,0,0,0,2.41,1,3.26,3.26,0,0,0,1.71-.45,3.21,3.21,0,0,0,1.19-1.26,3.88,3.88,0,0,0,.44-1.91,3.92,3.92,0,0,0-.44-1.9,3.17,3.17,0,0,0-1.19-1.27,3.26,3.26,0,0,0-1.71-.45A3.16,3.16,0,0,0,423.15,335.41Z"/><path class="cls-1" d="M434,328.46a1.47,1.47,0,0,1,1-.38,1.52,1.52,0,0,1,1.07.38,1.24,1.24,0,0,1,.4,1,1.19,1.19,0,0,1-.4.94,1.56,1.56,0,0,1-1.07.36,1.5,1.5,0,0,1-1-.36,1.19,1.19,0,0,1-.4-.94A1.24,1.24,0,0,1,434,328.46Zm2.19,4.14v10.95h-2.27V332.6Z"/><path class="cls-1" d="M447.29,333.58a4.92,4.92,0,0,1,1.73,3.05h-2.41a2.55,2.55,0,0,0-1-1.62,3.07,3.07,0,0,0-1.92-.59,2.89,2.89,0,0,0-2.19.93,3.8,3.8,0,0,0-.87,2.71,3.85,3.85,0,0,0,.87,2.72,2.86,2.86,0,0,0,2.19.94,3,3,0,0,0,1.92-.6,2.58,2.58,0,0,0,1-1.63H449a4.91,4.91,0,0,1-1.73,3.06,5.37,5.37,0,0,1-3.52,1.14A5.7,5.7,0,0,1,441,343a4.75,4.75,0,0,1-1.92-1.95,6.74,6.74,0,0,1,0-6,4.75,4.75,0,0,1,1.92-1.95,5.7,5.7,0,0,1,2.81-.67A5.42,5.42,0,0,1,447.29,333.58Z"/><path class="cls-1" d="M451.28,328.46a1.5,1.5,0,0,1,1.06-.38,1.51,1.51,0,0,1,1.06.38,1.25,1.25,0,0,1,.41,1,1.2,1.2,0,0,1-.41.94,1.55,1.55,0,0,1-1.06.36,1.53,1.53,0,0,1-1.06-.36,1.21,1.21,0,0,1-.39-.94A1.27,1.27,0,0,1,451.28,328.46Zm2.19,4.14v10.95H451.2V332.6Z"/><path class="cls-1" d="M464.08,333.13a4.85,4.85,0,0,1,2,1.95,6.57,6.57,0,0,1,0,6,4.85,4.85,0,0,1-2,1.95,6.33,6.33,0,0,1-5.71,0,4.88,4.88,0,0,1-2-2,6.55,6.55,0,0,1,0-6,4.91,4.91,0,0,1,2-1.95,6.42,6.42,0,0,1,5.71,0Zm-4.47,1.69a3,3,0,0,0-1.18,1.22,4.78,4.78,0,0,0,0,4,2.93,2.93,0,0,0,1.18,1.21,3.44,3.44,0,0,0,3.22,0,2.87,2.87,0,0,0,1.18-1.21,4.78,4.78,0,0,0,0-4,2.9,2.9,0,0,0-1.18-1.22,3.44,3.44,0,0,0-3.22,0Zm4.77-5.33L460,331.74v-1.59l4.39-2.42Z"/><path class="cls-1" d="M478.16,333.65a4.94,4.94,0,0,1,1.15,3.52v6.38H477V337.4a3.2,3.2,0,0,0-.75-2.27,2.7,2.7,0,0,0-2.07-.81,2.85,2.85,0,0,0-2.17.87,3.58,3.58,0,0,0-.81,2.53v5.83H469V332.6h2.27V335a3.67,3.67,0,0,1,1.47-1.91,4.26,4.26,0,0,1,2.39-.67A4,4,0,0,1,478.16,333.65Z"/><path class="cls-1" d="M493.54,333.19a3.86,3.86,0,0,1,1.47,1.95v-6.3h2.29v14.71H495V341a3.86,3.86,0,0,1-1.47,1.95,4.33,4.33,0,0,1-2.54.74,4.87,4.87,0,0,1-2.56-.68,4.64,4.64,0,0,1-1.76-1.95,7.41,7.41,0,0,1,0-6,4.64,4.64,0,0,1,1.76-1.95,4.87,4.87,0,0,1,2.56-.67A4.32,4.32,0,0,1,493.54,333.19Zm-4.26,2.22a4.33,4.33,0,0,0,0,5.31,3.16,3.16,0,0,0,2.41,1A3.22,3.22,0,0,0,494.6,340a4,4,0,0,0,.43-1.91,4,4,0,0,0-.43-1.9,3.2,3.2,0,0,0-1.2-1.27,3.26,3.26,0,0,0-1.71-.45A3.16,3.16,0,0,0,489.28,335.41Z"/><path class="cls-1" d="M510.12,338.52h-8.43a3.4,3.4,0,0,0,.94,2.5,3,3,0,0,0,2.16.82,3.11,3.11,0,0,0,1.92-.58,2.33,2.33,0,0,0,1-1.53h2.43a4.69,4.69,0,0,1-2.72,3.45,5.93,5.93,0,0,1-2.49.51,5.7,5.7,0,0,1-2.81-.68,4.75,4.75,0,0,1-1.92-1.95,6.74,6.74,0,0,1,0-6,4.75,4.75,0,0,1,1.92-1.95,6.27,6.27,0,0,1,5.62,0,4.65,4.65,0,0,1,1.85,1.83,5.27,5.27,0,0,1,.65,2.59A5.54,5.54,0,0,1,510.12,338.52Zm-2.58-2.83a2.51,2.51,0,0,0-1.11-1.08,3.44,3.44,0,0,0-1.54-.34,3.2,3.2,0,0,0-2.23.81,3.32,3.32,0,0,0-1,2.4h6.22A3.23,3.23,0,0,0,507.54,335.69Z"/><path class="cls-1" d="M437.12,365.05l3.1-8.6h2.43l-4.18,10.95h-2.74l-4.17-10.95H434Z"/><path class="cls-1" d="M444.4,352.31a1.45,1.45,0,0,1,1.05-.37,1.49,1.49,0,0,1,1.06.37,1.27,1.27,0,0,1,.41,1,1.19,1.19,0,0,1-.41.93,1.53,1.53,0,0,1-1.06.36,1.49,1.49,0,0,1-1.05-.36,1.18,1.18,0,0,1-.4-.93A1.26,1.26,0,0,1,444.4,352.31Zm2.18,4.14V367.4h-2.26V356.45Z"/><path class="cls-1" d="M456.26,357a3.86,3.86,0,0,1,1.47,1.95v-6.3H460V367.4h-2.29v-2.54a3.88,3.88,0,0,1-1.47,1.94,4.33,4.33,0,0,1-2.54.74,4.87,4.87,0,0,1-2.56-.68,4.67,4.67,0,0,1-1.76-1.94,6.71,6.71,0,0,1-.63-3,6.64,6.64,0,0,1,.63-3,4.7,4.7,0,0,1,1.76-1.95,4.87,4.87,0,0,1,2.56-.67A4.32,4.32,0,0,1,456.26,357ZM452,359.26a4.33,4.33,0,0,0,0,5.31,3.16,3.16,0,0,0,2.41,1,3.26,3.26,0,0,0,1.71-.45,3.11,3.11,0,0,0,1.2-1.26,4.41,4.41,0,0,0,0-3.8,3.15,3.15,0,0,0-2.91-1.72A3.16,3.16,0,0,0,452,359.26Z"/><path class="cls-1" d="M472.84,362.37h-8.43a3.44,3.44,0,0,0,.94,2.51,3,3,0,0,0,2.16.81,3.11,3.11,0,0,0,1.92-.58,2.33,2.33,0,0,0,1-1.53h2.43a4.83,4.83,0,0,1-.91,2.05,4.77,4.77,0,0,1-1.81,1.4,5.93,5.93,0,0,1-2.49.51,5.7,5.7,0,0,1-2.81-.68,4.85,4.85,0,0,1-1.92-1.94,6.22,6.22,0,0,1-.69-3,6.16,6.16,0,0,1,.69-3A4.87,4.87,0,0,1,464.8,357a6.27,6.27,0,0,1,5.62,0,4.65,4.65,0,0,1,1.85,1.83,5.28,5.28,0,0,1,.65,2.6A5.5,5.5,0,0,1,472.84,362.37Zm-2.57-2.83a2.62,2.62,0,0,0-1.12-1.07,3.32,3.32,0,0,0-1.54-.35,3.16,3.16,0,0,0-2.22.81,3.33,3.33,0,0,0-1,2.41h6.22A3.34,3.34,0,0,0,470.27,359.54Z"/><path class="cls-1" d="M483,357a4.83,4.83,0,0,1,2,1.95,6,6,0,0,1,.72,3,6,6,0,0,1-.72,3,4.81,4.81,0,0,1-2,1.94,6,6,0,0,1-2.86.68,6,6,0,0,1-2.86-.68,5,5,0,0,1-2-1.95,6.05,6.05,0,0,1-.72-3,6,6,0,0,1,.72-3,5,5,0,0,1,2-1.95,6,6,0,0,1,2.86-.67A6,6,0,0,1,483,357Zm-4.48,1.69a3,3,0,0,0-1.18,1.23,4.76,4.76,0,0,0,0,4,2.93,2.93,0,0,0,1.18,1.21,3.3,3.3,0,0,0,1.62.4,3.25,3.25,0,0,0,1.6-.4,2.89,2.89,0,0,0,1.19-1.21,4.86,4.86,0,0,0,0-4,3,3,0,0,0-1.19-1.23,3.35,3.35,0,0,0-1.6-.39A3.4,3.4,0,0,0,478.5,358.67Z"/><path class="cls-1" d="M235.64,333.09a5,5,0,0,1,1.15,3.52V343h-2.27v-6.14a3.23,3.23,0,0,0-.75-2.28,2.71,2.71,0,0,0-2.07-.8,2.84,2.84,0,0,0-2.16.86,3.54,3.54,0,0,0-.82,2.54V343h-2.27V328.28h2.27v6.16a3.65,3.65,0,0,1,1.47-1.9,4.21,4.21,0,0,1,2.39-.68A4,4,0,0,1,235.64,333.09Z"/><path class="cls-1" d="M244.94,341v2h-1.39a3.75,3.75,0,0,1-2.65-.84,3.7,3.7,0,0,1-.91-2.82V334h-1.57V332H240v-2.72h2.29V332h2.64V334h-2.64v5.4a1.88,1.88,0,0,0,.34,1.3,1.74,1.74,0,0,0,1.23.35Z"/><path class="cls-1" d="M263.87,333.09a4.92,4.92,0,0,1,1.17,3.52V343h-2.27v-6.14a3.17,3.17,0,0,0-.72-2.22,2.52,2.52,0,0,0-2-.78,2.76,2.76,0,0,0-2.12.84,3.55,3.55,0,0,0-.79,2.48V343h-2.26v-6.14a3.17,3.17,0,0,0-.72-2.22,2.52,2.52,0,0,0-2-.78,2.75,2.75,0,0,0-2.11.84,3.5,3.5,0,0,0-.79,2.48V343h-2.26V332h2.26v2.28a3.47,3.47,0,0,1,1.39-1.82,4.07,4.07,0,0,1,2.29-.64,4.11,4.11,0,0,1,2.38.68,3.91,3.91,0,0,1,1.46,1.94,3.84,3.84,0,0,1,1.53-1.92,4.16,4.16,0,0,1,2.38-.7A4.07,4.07,0,0,1,263.87,333.09Z"/><path class="cls-1" d="M270,328.28V343h-2.27V328.28Z"/><path class="cls-1" d="M282.07,330.75h-6.94v4.17a3.24,3.24,0,0,1,1.35-1,4.88,4.88,0,0,1,1.93-.37,4.52,4.52,0,0,1,2.45.62,3.82,3.82,0,0,1,1.44,1.67,5.47,5.47,0,0,1,.47,2.28,5.09,5.09,0,0,1-1.24,3.57,4.56,4.56,0,0,1-3.57,1.36,5.23,5.23,0,0,1-3.56-1.17,4.29,4.29,0,0,1-1.47-3.12h2.22a2.79,2.79,0,0,0,.89,1.69,2.64,2.64,0,0,0,1.8.61,2.47,2.47,0,0,0,2-.81,3.31,3.31,0,0,0,.68-2.17,2.76,2.76,0,0,0-.7-2,2.61,2.61,0,0,0-2-.72,3.07,3.07,0,0,0-1.6.4,2.38,2.38,0,0,0-1,1.05h-2.2v-8.09h9Z"/><path class="cls-1" d="M291,332l3.28,8,3.05-8h2.52l-6.62,16.16h-2.52l2.36-5.47L288.49,332Z"/><path class="cls-1" d="M249.75,356.87a4.87,4.87,0,0,1,1.73,3.06h-2.41a2.55,2.55,0,0,0-1-1.62,3.07,3.07,0,0,0-1.92-.59,2.89,2.89,0,0,0-2.18.92,4.64,4.64,0,0,0,0,5.44,2.87,2.87,0,0,0,2.18.93,3,3,0,0,0,1.92-.59,2.6,2.6,0,0,0,1-1.63h2.41a4.92,4.92,0,0,1-1.73,3.06,5.37,5.37,0,0,1-3.52,1.13,5.7,5.7,0,0,1-2.81-.67,4.81,4.81,0,0,1-1.92-1.95,6.21,6.21,0,0,1-.69-3,6.13,6.13,0,0,1,.69-3,4.81,4.81,0,0,1,1.92-1.95,5.7,5.7,0,0,1,2.81-.68A5.48,5.48,0,0,1,249.75,356.87Z"/><path class="cls-1" d="M260.35,356.74a4.16,4.16,0,0,1,1.43,2.63h-2.15a2.27,2.27,0,0,0-.77-1.44,2.39,2.39,0,0,0-1.66-.55,2,2,0,0,0-1.32.41,1.39,1.39,0,0,0-.47,1.1,1.11,1.11,0,0,0,.34.84,2.29,2.29,0,0,0,.85.49,13.13,13.13,0,0,0,1.44.4,14.91,14.91,0,0,1,2,.58,3.28,3.28,0,0,1,1.31.94,2.66,2.66,0,0,1,.54,1.76,2.73,2.73,0,0,1-1,2.23A4.28,4.28,0,0,1,258,367a5.37,5.37,0,0,1-3.31-1,4,4,0,0,1-1.52-2.67h2.2a2.15,2.15,0,0,0,.8,1.46,2.83,2.83,0,0,0,1.83.55,1.8,1.8,0,0,0,1.28-.43,1.39,1.39,0,0,0,.47-1.08,1.18,1.18,0,0,0-.36-.91,2.54,2.54,0,0,0-.89-.53,13,13,0,0,0-1.48-.39,16.15,16.15,0,0,1-1.93-.55,3.11,3.11,0,0,1-1.28-.91,2.56,2.56,0,0,1-.52-1.7,2.78,2.78,0,0,1,1-2.25,4.39,4.39,0,0,1,2.89-.87A4.59,4.59,0,0,1,260.35,356.74Z"/><path class="cls-1" d="M270.85,356.74a4.15,4.15,0,0,1,1.42,2.63h-2.15a2.26,2.26,0,0,0-.76-1.44,2.41,2.41,0,0,0-1.66-.55,2,2,0,0,0-1.32.41,1.39,1.39,0,0,0-.47,1.1,1.08,1.08,0,0,0,.34.84,2.17,2.17,0,0,0,.84.49,13.13,13.13,0,0,0,1.44.4,14.48,14.48,0,0,1,2,.58,3.21,3.21,0,0,1,1.31.94,2.61,2.61,0,0,1,.55,1.76,2.75,2.75,0,0,1-1,2.23,4.33,4.33,0,0,1-2.82.85,5.41,5.41,0,0,1-3.31-1,4,4,0,0,1-1.52-2.67h2.21a2.11,2.11,0,0,0,.8,1.46,2.82,2.82,0,0,0,1.82.55,1.83,1.83,0,0,0,1.29-.43,1.39,1.39,0,0,0,.46-1.08,1.21,1.21,0,0,0-.35-.91,2.5,2.5,0,0,0-.9-.53,13.32,13.32,0,0,0-1.47-.39,16.39,16.39,0,0,1-1.94-.55,3,3,0,0,1-1.27-.91,2.56,2.56,0,0,1-.53-1.7,2.76,2.76,0,0,1,1.05-2.25,4.37,4.37,0,0,1,2.89-.87A4.62,4.62,0,0,1,270.85,356.74Z"/><path class="cls-1" d="M281.63,352.86a3.34,3.34,0,0,1,1.5,1.34,3.67,3.67,0,0,1,.51,1.91,3.36,3.36,0,0,1-.74,2.22,3.18,3.18,0,0,1-2.1,1.06v.1a5.15,5.15,0,0,1,2.27,1.24,3.08,3.08,0,0,1,.83,2.28,3.77,3.77,0,0,1-1.17,2.87,4.75,4.75,0,0,1-3.36,1.1,5.47,5.47,0,0,1-3.62-1.14,4.74,4.74,0,0,1-1.57-3.39h2.25a2.93,2.93,0,0,0,.85,1.9,2.75,2.75,0,0,0,2,.7,2.47,2.47,0,0,0,1.8-.61,2.16,2.16,0,0,0,.62-1.59,2,2,0,0,0-.9-1.79,4.65,4.65,0,0,0-2.62-.62h-.53v-1.87h.53c2.16,0,3.24-.7,3.24-2.2a2,2,0,0,0-.59-1.53,2.3,2.3,0,0,0-1.63-.56,2.47,2.47,0,0,0-1.73.63,2.81,2.81,0,0,0-.84,1.82H274.4a4.53,4.53,0,0,1,1.39-3.21,4.9,4.9,0,0,1,3.46-1.15A5.26,5.26,0,0,1,281.63,352.86Z"/><polygon class="cls-2" points="111.5 210.94 111.5 230.72 37.21 230.72 37.21 296.6 3.75 296.6 3.75 210.94 111.5 210.94"/><path class="cls-2" d="M111.5,230.72v65.5L84.73,273a11.37,11.37,0,0,1-7.36,7.29L91.32,296.6H37.21V230.72Z"/><path class="cls-2" d="M46.47,261.24h6.32v6.31H46.47Z"/><path class="cls-2" d="M46.47,242.51H57.63v6.31H46.47Z"/><path class="cls-2" d="M85.62,242.51H96.77v6.31H85.62Z"/><path class="cls-3" d="M17.64,243.35h8.84v6.31H17.64Z"/><path class="cls-3" d="M17.64,261.24h8.84v6.31H17.64Z"/><path class="cls-3" d="M17.64,279.13h8.84v6.31H17.64Z"/><path class="cls-2" d="M111.5,296.22v10.9H100.35l-9-10.52-14-16.29A11.51,11.51,0,0,0,82,277.55a11.82,11.82,0,0,0,2.8-4.53Z"/><path class="cls-2" d="M85.3,269.49a11.35,11.35,0,0,1-3.37,8.08,11.27,11.27,0,0,1-4.56,2.76,11.42,11.42,0,0,1-5,.44,19.52,19.52,0,0,1,1.89-10.86,26.66,26.66,0,0,0,3.08-10.42c2.44.68,4.52,1.6,5.83,3.41A11.1,11.1,0,0,1,85.3,269.49Z"/><path class="cls-3" d="M74.27,269.89a19.52,19.52,0,0,0-1.89,10.86,11.31,11.31,0,0,1-7.68-4.65c-2.23-3.14-3.92-8.72-3.92-13.75a16.8,16.8,0,0,1,.76-5.24,8.81,8.81,0,0,1,1.54-2.82c4.27,3.52,9.85,3.94,14.27,5.16A26.65,26.65,0,0,1,74.27,269.89Z"/><path class="cls-3" d="M17.64,218.73H24V225H17.64Z"/><path class="cls-3" d="M30.27,218.73h6.31V225H30.27Z"/><path class="cls-2" d="M470.46,282.39,466,286.9l8.28,8.28,8.28,8.28,8.73-8.73v18.5H420.15V204.68H471l20.27,22.4v34.55Z"/><path class="cls-4" d="M491,226.82H470.8V204.68C471.08,204.68,469.44,203,491,226.82Z"/><polygon class="cls-2" points="449.11 243.32 449.11 264.38 433.78 272.89 433.78 234.8 449.11 243.32"/><rect class="cls-2" x="449.11" y="238.74" width="28.53" height="30.23"/><path class="cls-2" d="M482.51,303.46l-4.45,4.43-1,.23c-.32.09-.63.15-.93.24l-.92.23-1.3.32-.83.22c-.83.21-1.59.4-2.34.57l-.72.19c-.24.07-.47.11-.71.17l-.34.09-3.06.76-.56.13-.25.07-.51.12-.26.07c-.32.08-.64.17-.93.23l-.22.06c-.72.2-1.38.35-2,.49l-.17.05-.49.12-.44.11-.28.07-.13,0-.38.1a3.15,3.15,0,0,1-.47.11c-.72.19-1.23.3-1.62.41l-1.27.31h0c.06-.27,5.53-21.88,5.6-22.16L466,286.9l8.28,8.28Z"/><path class="cls-2" d="M479.55,291.48l-.81-.81Z"/><path class="cls-2" d="M480.3,292.2l-.73-.72C479.79,291.71,480,291.94,480.3,292.2Z"/><path class="cls-2" d="M481.7,293.63l-1.42-1.43Z"/><path class="cls-2" d="M483.19,295.12l-.7-.71Z"/><path class="cls-2" d="M483.77,295.69l-.58-.57Z"/><polygon class="cls-2" points="516.09 269.87 516.06 269.89 482.51 303.46 474.23 295.18 465.95 286.9 470.46 282.39 491.24 261.63 499.5 253.35 507.78 261.63 516.04 269.91 516.09 269.87"/><polygon class="cls-2" points="529.14 256.82 516.04 269.91 507.78 261.63 499.5 253.35 512.59 240.25 520.88 248.53 529.14 256.82"/><polygon class="cls-2" points="529.16 256.8 516.06 269.89 516.06 269.89 529.14 256.82 520.88 248.53 520.88 248.53 529.16 256.8"/><polygon class="cls-2" points="307.62 219.29 307.62 231.01 253.88 231.01 248.72 219.29 307.62 219.29"/><polygon class="cls-2" points="313.28 231.01 313.28 304.82 213.3 304.82 213.3 213.24 246.07 213.24 248.72 219.29 253.88 231.01 313.28 231.01"/><path class="cls-5" d="M237.22,269.18l12.21,12.21h-8.28l-12.23-12.21,12.4-12.4h8.05l.12.12Z"/><path class="cls-5" d="M297.66,269.18l-12.2,12.21h-8.3l12.2-12.21L277.08,256.9l.12-.12h8Z"/><polygon class="cls-5" points="271.08 256.78 263.29 277.56 261.85 281.39 255.6 281.39 263.29 260.88 264.83 256.78 271.08 256.78"/><path class="cls-1" d="M405,131.54a2.16,2.16,0,0,0-.54,1.66v.18h2.41v2h-2.41v9h-2.28v-9h-1.49v-2h1.49V133a3.75,3.75,0,0,1,1.17-3,4.88,4.88,0,0,1,3.52-.88v2A2.68,2.68,0,0,0,405,131.54Z"/><path class="cls-1" d="M416.57,133.92a4.85,4.85,0,0,1,2,2,6,6,0,0,1,.71,3,6.1,6.1,0,0,1-.71,3,4.85,4.85,0,0,1-2,2,6,6,0,0,1-2.86.67,6,6,0,0,1-2.86-.67,4.91,4.91,0,0,1-2-2,5.91,5.91,0,0,1-.73-3,5.83,5.83,0,0,1,.73-3,4.89,4.89,0,0,1,2-2,6,6,0,0,1,2.86-.68A6,6,0,0,1,416.57,133.92Zm-4.47,1.69a2.86,2.86,0,0,0-1.19,1.22,4.16,4.16,0,0,0-.44,2,4.11,4.11,0,0,0,.44,2,2.92,2.92,0,0,0,1.19,1.22,3.52,3.52,0,0,0,3.22,0,3,3,0,0,0,1.18-1.22,4.11,4.11,0,0,0,.45-2,4.16,4.16,0,0,0-.45-2,2.9,2.9,0,0,0-1.18-1.22,3.44,3.44,0,0,0-3.22,0Z"/><path class="cls-1" d="M427,142.37v2h-1.39a3.13,3.13,0,0,1-3.56-3.65v-5.37h-1.57v-1.93H422v-2.72h2.29v2.72h2.64v1.93H424.3v5.41a1.86,1.86,0,0,0,.35,1.29,1.66,1.66,0,0,0,1.22.36Z"/><path class="cls-1" d="M437,133.92a4.85,4.85,0,0,1,2,2,5.92,5.92,0,0,1,.71,3,6,6,0,0,1-.71,3,4.85,4.85,0,0,1-2,2,6,6,0,0,1-2.86.67,5.94,5.94,0,0,1-2.85-.67,4.94,4.94,0,0,1-2-2,6,6,0,0,1-.73-3,5.93,5.93,0,0,1,.73-3,4.91,4.91,0,0,1,2-2,5.94,5.94,0,0,1,2.85-.68A6,6,0,0,1,437,133.92Zm-4.47,1.69a2.84,2.84,0,0,0-1.18,1.22,4.16,4.16,0,0,0-.45,2,4.11,4.11,0,0,0,.45,2,2.9,2.9,0,0,0,1.18,1.22,3.52,3.52,0,0,0,3.22,0,3,3,0,0,0,1.18-1.22,4.11,4.11,0,0,0,.45-2,4.16,4.16,0,0,0-.45-2,2.9,2.9,0,0,0-1.18-1.22,3.44,3.44,0,0,0-3.22,0Z"/><path class="cls-1" d="M448.79,134a4,4,0,0,1,1.49,1.94v-2.54h2.27v11.07a5.72,5.72,0,0,1-.63,2.72,4.64,4.64,0,0,1-1.8,1.85,5.48,5.48,0,0,1-2.78.68,6,6,0,0,1-3.73-1.09,4.72,4.72,0,0,1-1.78-3h2.25a2.68,2.68,0,0,0,1.07,1.53,3.55,3.55,0,0,0,2,.54,3.1,3.1,0,0,0,2.22-.83,3.19,3.19,0,0,0,.88-2.43v-2.66a4,4,0,0,1-1.49,2,4.33,4.33,0,0,1-2.55.73,4.86,4.86,0,0,1-2.55-.67,4.58,4.58,0,0,1-1.76-2,6.7,6.7,0,0,1-.64-3,6.61,6.61,0,0,1,.64-3,4.58,4.58,0,0,1,1.76-2,4.86,4.86,0,0,1,2.55-.68A4.34,4.34,0,0,1,448.79,134Zm-4.27,2.21a4.37,4.37,0,0,0,0,5.31,3.18,3.18,0,0,0,2.42,1,3.25,3.25,0,0,0,1.71-.44,3.17,3.17,0,0,0,1.19-1.27,4,4,0,0,0,.44-1.9,4,4,0,0,0-.44-1.9,3.11,3.11,0,0,0-1.19-1.27,3.26,3.26,0,0,0-1.71-.45A3.18,3.18,0,0,0,444.52,136.19Z"/><path class="cls-1" d="M459.12,133.83a4.51,4.51,0,0,1,2.39-.63v2.47h-.68a3.72,3.72,0,0,0-2.39.72,2.92,2.92,0,0,0-.91,2.4v5.54h-2.26v-11h2.26v2.15A4.34,4.34,0,0,1,459.12,133.83Z"/><path class="cls-1" d="M470.14,134a4,4,0,0,1,1.49,1.94v-2.54h2.26v11h-2.26v-2.54a4,4,0,0,1-1.49,2,4.35,4.35,0,0,1-2.55.73,4.86,4.86,0,0,1-2.55-.67,4.58,4.58,0,0,1-1.76-2,6.57,6.57,0,0,1-.64-3,6.48,6.48,0,0,1,.64-3,4.58,4.58,0,0,1,1.76-2,4.86,4.86,0,0,1,2.55-.68A4.36,4.36,0,0,1,470.14,134Zm-4.27,2.21a4.37,4.37,0,0,0,0,5.31,3.18,3.18,0,0,0,2.42,1A3.3,3.3,0,0,0,470,142a3.17,3.17,0,0,0,1.19-1.27,4,4,0,0,0,.44-1.9,4,4,0,0,0-.44-1.9,3.11,3.11,0,0,0-1.19-1.27,3.31,3.31,0,0,0-1.71-.45A3.18,3.18,0,0,0,465.87,136.19Z"/><path class="cls-1" d="M479.86,131.54a2.16,2.16,0,0,0-.54,1.66v.18h2.4v2h-2.4v9H477v-9h-1.49v-2H477V133a3.72,3.72,0,0,1,1.18-3,4.87,4.87,0,0,1,3.51-.88v2A2.65,2.65,0,0,0,479.86,131.54Z"/><path class="cls-1" d="M488.08,130.28l-4.39,2.25v-1.59l4.39-2.43Zm-2,3.1v11h-2.29v-11Z"/><path class="cls-1" d="M496,134a4,4,0,0,1,1.49,1.94v-2.54h2.26v11h-2.26v-2.54a4,4,0,0,1-1.49,2,4.35,4.35,0,0,1-2.55.73,4.86,4.86,0,0,1-2.55-.67,4.58,4.58,0,0,1-1.76-2,6.57,6.57,0,0,1-.64-3,6.48,6.48,0,0,1,.64-3,4.58,4.58,0,0,1,1.76-2,4.86,4.86,0,0,1,2.55-.68A4.36,4.36,0,0,1,496,134Zm-4.27,2.21a4.37,4.37,0,0,0,0,5.31,3.18,3.18,0,0,0,2.42,1,3.3,3.3,0,0,0,1.71-.44,3.17,3.17,0,0,0,1.19-1.27,4,4,0,0,0,.44-1.9A4,4,0,0,0,497,137a3.11,3.11,0,0,0-1.19-1.27,3.31,3.31,0,0,0-1.71-.45A3.18,3.18,0,0,0,491.71,136.19Z"/><path class="cls-1" d="M508.4,133.38l3.28,8.05,3-8.05h2.52l-6.61,16.16H508.1l2.37-5.47-4.62-10.69Z"/><path class="cls-1" d="M433.42,163.16H425a3.45,3.45,0,0,0,.94,2.5,3,3,0,0,0,2.17.82,3.16,3.16,0,0,0,1.91-.58,2.37,2.37,0,0,0,1-1.53h2.42a4.71,4.71,0,0,1-.91,2,4.88,4.88,0,0,1-1.81,1.4,5.88,5.88,0,0,1-2.48.5,5.74,5.74,0,0,1-2.82-.67,4.87,4.87,0,0,1-1.92-2,6.82,6.82,0,0,1,0-6,4.87,4.87,0,0,1,1.92-1.95,6.21,6.21,0,0,1,5.63,0,4.59,4.59,0,0,1,1.85,1.83,5.24,5.24,0,0,1,.64,2.59A4.79,4.79,0,0,1,433.42,163.16Zm-2.57-2.84a2.54,2.54,0,0,0-1.11-1.07,3.51,3.51,0,0,0-1.54-.35,3.15,3.15,0,0,0-2.23.82,3.33,3.33,0,0,0-1,2.4h6.23A3.48,3.48,0,0,0,430.85,160.32Z"/><path class="cls-1" d="M442.63,157.83a3.86,3.86,0,0,1,1.47,1.95v-6.3h2.28v14.71H444.1v-2.55a3.86,3.86,0,0,1-1.47,2,4.35,4.35,0,0,1-2.55.73,4.86,4.86,0,0,1-2.55-.67,4.58,4.58,0,0,1-1.76-2,7.3,7.3,0,0,1,0-6,4.58,4.58,0,0,1,1.76-1.95,4.86,4.86,0,0,1,2.55-.68A4.36,4.36,0,0,1,442.63,157.83Zm-4.27,2.22a4.35,4.35,0,0,0,0,5.3,3.15,3.15,0,0,0,2.42,1,3.31,3.31,0,0,0,1.71-.45,3.21,3.21,0,0,0,1.19-1.26,4.34,4.34,0,0,0,0-3.81,3.17,3.17,0,0,0-1.19-1.27,3.31,3.31,0,0,0-1.71-.45A3.15,3.15,0,0,0,438.36,160.05Z"/><path class="cls-1" d="M449.19,153.1a1.45,1.45,0,0,1,1.05-.38,1.5,1.5,0,0,1,1.06.38,1.25,1.25,0,0,1,.41,1,1.2,1.2,0,0,1-.41.94,1.53,1.53,0,0,1-1.06.35,1.48,1.48,0,0,1-1.05-.35,1.19,1.19,0,0,1-.4-.94A1.24,1.24,0,0,1,449.19,153.1Zm2.18,4.13v11h-2.26v-11Z"/><path class="cls-1" d="M462.5,158.22a4.8,4.8,0,0,1,1.73,3.05h-2.4a2.61,2.61,0,0,0-1-1.62,3.07,3.07,0,0,0-1.92-.59,2.87,2.87,0,0,0-2.18.93,3.81,3.81,0,0,0-.88,2.71,3.85,3.85,0,0,0,.88,2.72,2.84,2.84,0,0,0,2.18.94,3,3,0,0,0,1.92-.6,2.66,2.66,0,0,0,1-1.63h2.4a4.82,4.82,0,0,1-1.73,3.06,5.35,5.35,0,0,1-3.52,1.13,5.72,5.72,0,0,1-2.81-.67,4.87,4.87,0,0,1-1.92-2,6.82,6.82,0,0,1,0-6,4.87,4.87,0,0,1,1.92-1.95,5.73,5.73,0,0,1,2.81-.68A5.41,5.41,0,0,1,462.5,158.22Z"/><path class="cls-1" d="M466.5,153.1a1.45,1.45,0,0,1,1.05-.38,1.5,1.5,0,0,1,1.06.38,1.21,1.21,0,0,1,.41,1,1.17,1.17,0,0,1-.41.94,1.53,1.53,0,0,1-1.06.35,1.48,1.48,0,0,1-1.05-.35,1.19,1.19,0,0,1-.4-.94A1.24,1.24,0,0,1,466.5,153.1Zm2.18,4.13v11h-2.26v-11Z"/><path class="cls-1" d="M479.3,157.77a4.85,4.85,0,0,1,2,1.95,6.65,6.65,0,0,1,0,6,4.85,4.85,0,0,1-2,2,6.44,6.44,0,0,1-5.72,0,4.85,4.85,0,0,1-2-2,6.47,6.47,0,0,1,0-6,4.89,4.89,0,0,1,2-1.95,6.35,6.35,0,0,1,5.72,0Zm-4.47,1.69a2.92,2.92,0,0,0-1.19,1.22,4.88,4.88,0,0,0,0,4,3,3,0,0,0,1.19,1.21,3.44,3.44,0,0,0,3.22,0,3,3,0,0,0,1.18-1.21,4.78,4.78,0,0,0,0-4,2.9,2.9,0,0,0-1.18-1.22,3.44,3.44,0,0,0-3.22,0Zm4.77-5.33-4.4,2.25v-1.59l4.4-2.43Z"/><path class="cls-1" d="M493.37,158.29a4.93,4.93,0,0,1,1.15,3.51v6.39h-2.26V162a3.15,3.15,0,0,0-.76-2.27,2.67,2.67,0,0,0-2.06-.81,2.82,2.82,0,0,0-2.17.87,3.56,3.56,0,0,0-.82,2.53v5.83h-2.26v-11h2.26v2.41a3.74,3.74,0,0,1,1.48-1.91,4.23,4.23,0,0,1,2.38-.68A4,4,0,0,1,493.37,158.29Z"/><rect class="cls-6" x="424.75" y="13.12" width="19.78" height="13.47"/><path class="cls-6" d="M406.25,76.63v-20h45.21a25,25,0,1,0,47.19,0h14.88v46.92H406.25V76.65"/><path class="cls-6" d="M406.25,26.57V56.66h45.22a25,25,0,0,1,47.17,0h14.89V26.57Zm33.44,19.78H424.54v-6.3h15.15Z"/><path class="cls-6" d="M498.61,56.66a25,25,0,0,0-47.16,0A25.06,25.06,0,0,0,475,90.15a25,25,0,0,0,25-25A24.67,24.67,0,0,0,498.61,56.66ZM475,75a9.9,9.9,0,1,1,9.89-9.89A9.88,9.88,0,0,1,475,75Z"/><rect class="cls-7" x="424.54" y="40.05" width="15.15" height="6.31"/><path class="cls-7" d="M484.93,65.07a9.89,9.89,0,1,1-15.09-8.43,9.78,9.78,0,0,1,5.2-1.46,9.85,9.85,0,0,1,9.89,9.89Z"/><path class="cls-1" d="M219.88,143.13a4.58,4.58,0,0,1,1.76,2,7.3,7.3,0,0,1,0,6,4.58,4.58,0,0,1-1.76,1.95,4.86,4.86,0,0,1-2.55.67,4.33,4.33,0,0,1-2.55-.73,3.86,3.86,0,0,1-1.47-1.95v7.75H211V142.59h2.27v2.55a3.86,3.86,0,0,1,1.47-1.95,4.34,4.34,0,0,1,2.55-.74A4.86,4.86,0,0,1,219.88,143.13Zm-5,1.76a3.17,3.17,0,0,0-1.19,1.27,4.34,4.34,0,0,0,0,3.81,3.21,3.21,0,0,0,1.19,1.26,3.26,3.26,0,0,0,1.71.45,3.17,3.17,0,0,0,2.43-1,4.3,4.3,0,0,0,0-5.29,3.18,3.18,0,0,0-2.43-1A3.26,3.26,0,0,0,214.92,144.89Z"/><path class="cls-1" d="M234.56,142.59v11h-2.29v-2.39a3.5,3.5,0,0,1-1.45,1.88,4.37,4.37,0,0,1-2.4.67,4,4,0,0,1-3.06-1.24A5,5,0,0,1,224.2,149v-6.36h2.27v6.13a3.24,3.24,0,0,0,.75,2.29,2.71,2.71,0,0,0,2.07.81,2.82,2.82,0,0,0,2.17-.88,3.6,3.6,0,0,0,.81-2.54v-5.81Z"/><path class="cls-1" d="M246.12,143.13a4.64,4.64,0,0,1,1.76,2,7.41,7.41,0,0,1,0,6,4.64,4.64,0,0,1-1.76,1.95,4.87,4.87,0,0,1-2.56.67A4.32,4.32,0,0,1,241,153a3.86,3.86,0,0,1-1.47-1.95v2.55h-2.27V138.84h2.27v6.3a3.86,3.86,0,0,1,1.47-1.95,4.33,4.33,0,0,1,2.54-.74A4.87,4.87,0,0,1,246.12,143.13Zm-5,1.76a3.11,3.11,0,0,0-1.19,1.27,4.34,4.34,0,0,0,0,3.81,3.14,3.14,0,0,0,1.19,1.26,3.26,3.26,0,0,0,1.71.45,3.16,3.16,0,0,0,2.42-1,4.26,4.26,0,0,0,0-5.29,3.17,3.17,0,0,0-2.42-1A3.26,3.26,0,0,0,241.16,144.89Z"/><path class="cls-1" d="M253,138.84v14.71H250.7V138.84Z"/><path class="cls-1" d="M255.79,138.46a1.45,1.45,0,0,1,1-.38,1.5,1.5,0,0,1,1.06.38,1.21,1.21,0,0,1,.41.95,1.17,1.17,0,0,1-.41.94,1.53,1.53,0,0,1-1.06.36,1.49,1.49,0,0,1-1-.36,1.19,1.19,0,0,1-.4-.94A1.24,1.24,0,0,1,255.79,138.46Zm2.18,4.13v11h-2.26v-11Z"/><path class="cls-1" d="M269.11,143.58a4.89,4.89,0,0,1,1.73,3h-2.41a2.55,2.55,0,0,0-1-1.62,3.07,3.07,0,0,0-1.92-.59,2.87,2.87,0,0,0-2.19.93,3.8,3.8,0,0,0-.87,2.71,3.85,3.85,0,0,0,.87,2.72,2.85,2.85,0,0,0,2.19.94,3,3,0,0,0,1.92-.6,2.6,2.6,0,0,0,1-1.63h2.41a4.91,4.91,0,0,1-1.73,3.06,5.37,5.37,0,0,1-3.52,1.13,5.76,5.76,0,0,1-2.82-.67,4.79,4.79,0,0,1-1.91-1.95,6.74,6.74,0,0,1,0-6,4.79,4.79,0,0,1,1.91-2,5.77,5.77,0,0,1,2.82-.68A5.42,5.42,0,0,1,269.11,143.58Z"/><path class="cls-1" d="M273.1,138.46a1.49,1.49,0,0,1,1-.38,1.52,1.52,0,0,1,1.07.38,1.25,1.25,0,0,1,.41.95,1.2,1.2,0,0,1-.41.94,1.56,1.56,0,0,1-1.07.36,1.52,1.52,0,0,1-1-.36,1.22,1.22,0,0,1-.4-.94A1.28,1.28,0,0,1,273.1,138.46Zm2.19,4.13v11H273v-11Z"/><path class="cls-1" d="M285,143.19a3.86,3.86,0,0,1,1.47,1.95v-6.3h2.28v14.71h-2.28V151A3.86,3.86,0,0,1,285,153a4.35,4.35,0,0,1-2.55.73,4.86,4.86,0,0,1-2.55-.67,4.58,4.58,0,0,1-1.76-1.95,7.3,7.3,0,0,1,0-6,4.58,4.58,0,0,1,1.76-2,4.86,4.86,0,0,1,2.55-.68A4.36,4.36,0,0,1,285,143.19Zm-4.27,2.22a4.35,4.35,0,0,0,0,5.3,3.15,3.15,0,0,0,2.42,1,3.31,3.31,0,0,0,1.71-.45A3.21,3.21,0,0,0,286,150a4.34,4.34,0,0,0,0-3.81,3.17,3.17,0,0,0-1.19-1.27,3.31,3.31,0,0,0-1.71-.45A3.15,3.15,0,0,0,280.7,145.41Z"/><path class="cls-1" d="M298.38,143.19a3.9,3.9,0,0,1,1.49,1.95v-2.55h2.27v11h-2.27V151a3.9,3.9,0,0,1-1.49,1.95,4.32,4.32,0,0,1-2.54.73,4.83,4.83,0,0,1-2.55-.67,4.58,4.58,0,0,1-1.76-1.95,7.3,7.3,0,0,1,0-6,4.58,4.58,0,0,1,1.76-2,4.84,4.84,0,0,1,2.55-.68A4.33,4.33,0,0,1,298.38,143.19Zm-4.26,2.22a4.35,4.35,0,0,0,0,5.3,3.13,3.13,0,0,0,2.42,1,3.25,3.25,0,0,0,1.7-.45,3.17,3.17,0,0,0,1.2-1.26,4.43,4.43,0,0,0,0-3.81,3.13,3.13,0,0,0-1.2-1.27,3.25,3.25,0,0,0-1.7-.45A3.13,3.13,0,0,0,294.12,145.41Z"/><path class="cls-1" d="M311.8,143.19a3.86,3.86,0,0,1,1.47,1.95v-6.3h2.29v14.71h-2.29V151A3.86,3.86,0,0,1,311.8,153a4.32,4.32,0,0,1-2.54.73,4.87,4.87,0,0,1-2.56-.67,4.64,4.64,0,0,1-1.76-1.95,7.41,7.41,0,0,1,0-6,4.64,4.64,0,0,1,1.76-2,4.87,4.87,0,0,1,2.56-.68A4.33,4.33,0,0,1,311.8,143.19Zm-4.26,2.22a4.31,4.31,0,0,0,0,5.3,3.13,3.13,0,0,0,2.41,1,3.26,3.26,0,0,0,1.71-.45,3.14,3.14,0,0,0,1.19-1.26,4.34,4.34,0,0,0,0-3.81,3.11,3.11,0,0,0-1.19-1.27,3.26,3.26,0,0,0-1.71-.45A3.13,3.13,0,0,0,307.54,145.41Z"/><rect class="cls-6" x="252.56" y="67.95" width="22.91" height="6.55"/><rect class="cls-6" x="252.56" y="81.04" width="22.91" height="33.16"/><path class="cls-6" d="M208.16,2.5V68H319.87V2.5Zm98.62,52.36H221.25V15.59h85.53Z"/><rect class="cls-7" x="221.25" y="15.59" width="85.52" height="39.27"/><rect class="cls-7" x="208.16" y="74.5" width="111.7" height="6.55"/><path class="cls-1" d="M6.39,126.63a1.5,1.5,0,0,1,1.06-.38,1.51,1.51,0,0,1,1.06.38,1.25,1.25,0,0,1,.41,1,1.19,1.19,0,0,1-.41.93,1.55,1.55,0,0,1-1.06.36,1.53,1.53,0,0,1-1.06-.36,1.21,1.21,0,0,1-.39-.93A1.27,1.27,0,0,1,6.39,126.63Zm2.19,4.14v10.95H6.31V130.77Z"/><path class="cls-1" d="M13.59,127v14.71H11.32V127Z"/><path class="cls-1" d="M26.43,130.77v10.95H24.14v-2.39a3.47,3.47,0,0,1-1.45,1.88,4.29,4.29,0,0,1-2.4.67,4,4,0,0,1-3.06-1.23,5,5,0,0,1-1.16-3.52v-6.36h2.27v6.12a3.18,3.18,0,0,0,.76,2.29,2.67,2.67,0,0,0,2.06.81,2.83,2.83,0,0,0,2.17-.87,3.65,3.65,0,0,0,.81-2.55v-5.8Z"/><path class="cls-1" d="M35.84,131.61a4.15,4.15,0,0,1,1.42,2.64H35.12a2.37,2.37,0,0,0-.77-1.45,2.46,2.46,0,0,0-1.66-.54,1.9,1.9,0,0,0-1.32.41,1.38,1.38,0,0,0-.47,1.1,1.07,1.07,0,0,0,.34.83,2.5,2.5,0,0,0,.84.5c.34.12.82.25,1.45.4a14.89,14.89,0,0,1,2,.57,3.33,3.33,0,0,1,1.32,1,2.66,2.66,0,0,1,.54,1.76,2.75,2.75,0,0,1-1,2.22,4.31,4.31,0,0,1-2.81.86,5.31,5.31,0,0,1-3.31-1,3.87,3.87,0,0,1-1.52-2.66h2.2a2.07,2.07,0,0,0,.8,1.45,2.83,2.83,0,0,0,1.83.56,1.8,1.8,0,0,0,1.28-.43,1.41,1.41,0,0,0,.47-1.08,1.21,1.21,0,0,0-.36-.92,2.48,2.48,0,0,0-.9-.52,11,11,0,0,0-1.47-.39,16.73,16.73,0,0,1-1.94-.56,3,3,0,0,1-1.27-.9,2.58,2.58,0,0,1-.52-1.7,2.78,2.78,0,0,1,1-2.26,4.43,4.43,0,0,1,2.89-.86A4.63,4.63,0,0,1,35.84,131.61Z"/><path class="cls-1" d="M45.15,139.75v2H43.76a3.14,3.14,0,0,1-3.56-3.66v-5.37H38.63v-1.92H40.2V128h2.29v2.73h2.64v1.92H42.49v5.41a1.86,1.86,0,0,0,.35,1.29,1.66,1.66,0,0,0,1.22.36Z"/><path class="cls-1" d="M51.14,131.21a4.56,4.56,0,0,1,2.38-.62v2.46h-.67a3.68,3.68,0,0,0-2.4.73,2.89,2.89,0,0,0-.9,2.39v5.55H47.28V130.77h2.27v2.14A4.26,4.26,0,0,1,51.14,131.21Z"/><path class="cls-1" d="M62.15,131.36a4,4,0,0,1,1.49,1.95v-2.54h2.27v10.95H63.64v-2.55a4,4,0,0,1-1.49,2,4.34,4.34,0,0,1-2.55.74,4.86,4.86,0,0,1-2.55-.68,4.64,4.64,0,0,1-1.76-2,7.41,7.41,0,0,1,0-6,4.64,4.64,0,0,1,1.76-1.95,4.86,4.86,0,0,1,2.55-.67A4.33,4.33,0,0,1,62.15,131.36Zm-4.26,2.22a4.33,4.33,0,0,0,0,5.31,3.14,3.14,0,0,0,2.41,1A3.26,3.26,0,0,0,62,139.4a3.21,3.21,0,0,0,1.19-1.26,4,4,0,0,0,.44-1.91,4,4,0,0,0-.44-1.9A3.17,3.17,0,0,0,62,133.06a3.25,3.25,0,0,0-1.71-.44A3.14,3.14,0,0,0,57.89,133.58Z"/><path class="cls-1" d="M77,131.75a4.92,4.92,0,0,1,1.73,3.05H76.34a2.55,2.55,0,0,0-1-1.62,3.07,3.07,0,0,0-1.92-.59,2.89,2.89,0,0,0-2.19.93,3.82,3.82,0,0,0-.87,2.71,3.89,3.89,0,0,0,.87,2.73,2.89,2.89,0,0,0,2.19.93,3,3,0,0,0,1.92-.6,2.58,2.58,0,0,0,1-1.63h2.41A4.91,4.91,0,0,1,77,140.72a5.37,5.37,0,0,1-3.52,1.14,5.7,5.7,0,0,1-2.81-.68,4.75,4.75,0,0,1-1.92-2,6.74,6.74,0,0,1,0-6,4.75,4.75,0,0,1,1.92-1.95,5.7,5.7,0,0,1,2.81-.67A5.42,5.42,0,0,1,77,131.75Z"/><path class="cls-1" d="M81,126.63a1.5,1.5,0,0,1,1.06-.38,1.51,1.51,0,0,1,1.06.38,1.25,1.25,0,0,1,.41,1,1.19,1.19,0,0,1-.41.93,1.55,1.55,0,0,1-1.06.36,1.53,1.53,0,0,1-1.06-.36,1.22,1.22,0,0,1-.4-.93A1.28,1.28,0,0,1,81,126.63Zm2.19,4.14v10.95H80.93V130.77Z"/><path class="cls-1" d="M93.81,131.3a4.85,4.85,0,0,1,2,1.95,6.57,6.57,0,0,1,0,6,4.85,4.85,0,0,1-2,2,6,6,0,0,1-2.86.68,5.94,5.94,0,0,1-2.85-.68,4.88,4.88,0,0,1-2-2,6.47,6.47,0,0,1,0-6,4.91,4.91,0,0,1,2-1.95,5.94,5.94,0,0,1,2.85-.67A6,6,0,0,1,93.81,131.3ZM89.34,133a3,3,0,0,0-1.18,1.22,4.78,4.78,0,0,0,0,4,2.93,2.93,0,0,0,1.18,1.21,3.44,3.44,0,0,0,3.22,0,2.93,2.93,0,0,0,1.18-1.21,4.78,4.78,0,0,0,0-4A3,3,0,0,0,92.56,133a3.44,3.44,0,0,0-3.22,0Zm4.77-5.32-4.39,2.24v-1.59l4.39-2.42Z"/><path class="cls-1" d="M107.89,131.82a5,5,0,0,1,1.15,3.52v6.38h-2.27v-6.14a3.23,3.23,0,0,0-.75-2.28,2.7,2.7,0,0,0-2.07-.8,2.84,2.84,0,0,0-2.17.86,3.58,3.58,0,0,0-.81,2.53v5.83H98.7V130.77H101v2.4a3.67,3.67,0,0,1,1.47-1.91,4.25,4.25,0,0,1,2.38-.67A4,4,0,0,1,107.89,131.82Z"/><path class="cls-1" d="M34.48,155.21A4,4,0,0,1,36,157.16v-6.3h2.29v14.71H36V163A3.8,3.8,0,0,1,34.48,165a4.26,4.26,0,0,1-2.54.74,4.78,4.78,0,0,1-2.56-.68,4.67,4.67,0,0,1-1.76-1.94,7.43,7.43,0,0,1,0-6,4.67,4.67,0,0,1,1.76-1.94,4.87,4.87,0,0,1,2.56-.68A4.39,4.39,0,0,1,34.48,155.21Zm-4.26,2.22a4.33,4.33,0,0,0,0,5.31,3.14,3.14,0,0,0,2.41,1,3.35,3.35,0,0,0,1.71-.44A3.17,3.17,0,0,0,35.53,162a4.32,4.32,0,0,0,0-3.8,3.11,3.11,0,0,0-1.19-1.27,3.26,3.26,0,0,0-1.71-.45A3.14,3.14,0,0,0,30.22,157.43Z"/><path class="cls-1" d="M41,150.48a1.46,1.46,0,0,1,1.05-.37,1.52,1.52,0,0,1,1.07.37,1.26,1.26,0,0,1,.4,1,1.18,1.18,0,0,1-.4.93,1.56,1.56,0,0,1-1.07.36,1.5,1.5,0,0,1-1.05-.36,1.18,1.18,0,0,1-.4-.93A1.26,1.26,0,0,1,41,150.48Zm2.19,4.14v10.95H41V154.62Z"/><path class="cls-1" d="M52.91,155.21a4,4,0,0,1,1.49,1.95v-2.54h2.26v11.07A5.76,5.76,0,0,1,56,168.4a4.6,4.6,0,0,1-1.8,1.86,5.48,5.48,0,0,1-2.78.68,6,6,0,0,1-3.73-1.1,4.67,4.67,0,0,1-1.78-3H48.2a2.63,2.63,0,0,0,1.07,1.52,3.45,3.45,0,0,0,2,.55,3.1,3.1,0,0,0,2.22-.83,3.19,3.19,0,0,0,.88-2.43V163A3.89,3.89,0,0,1,52.91,165a4.29,4.29,0,0,1-2.55.74,4.77,4.77,0,0,1-2.55-.68,4.61,4.61,0,0,1-1.76-1.94,7.33,7.33,0,0,1,0-6,4.61,4.61,0,0,1,1.76-1.94,4.86,4.86,0,0,1,2.55-.68A4.43,4.43,0,0,1,52.91,155.21Zm-4.27,2.22a4.37,4.37,0,0,0,0,5.31,3.18,3.18,0,0,0,2.42,1,3.4,3.4,0,0,0,1.71-.44A3.17,3.17,0,0,0,54,162a4.32,4.32,0,0,0,0-3.8,3.11,3.11,0,0,0-1.19-1.27,3.31,3.31,0,0,0-1.71-.45A3.18,3.18,0,0,0,48.64,157.43Z"/><path class="cls-1" d="M59.47,150.48a1.45,1.45,0,0,1,1.05-.37,1.49,1.49,0,0,1,1.06.37,1.27,1.27,0,0,1,.41,1,1.19,1.19,0,0,1-.41.93,1.53,1.53,0,0,1-1.06.36,1.49,1.49,0,0,1-1.05-.36,1.18,1.18,0,0,1-.4-.93A1.26,1.26,0,0,1,59.47,150.48Zm2.18,4.14v10.95H59.39V154.62Z"/><path class="cls-1" d="M69.9,163.6v2H68.51a3.75,3.75,0,0,1-2.65-.84,3.7,3.7,0,0,1-.91-2.82v-5.36H63.38v-1.93H65V151.9h2.29v2.72h2.64v1.93H67.24V162a1.82,1.82,0,0,0,.35,1.3,1.69,1.69,0,0,0,1.22.35Z"/><path class="cls-1" d="M79,155.21a4.07,4.07,0,0,1,1.5,1.95v-2.54h2.26v10.95H80.46V163A3.91,3.91,0,0,1,79,165a4.26,4.26,0,0,1-2.54.74,4.75,4.75,0,0,1-2.55-.68,4.61,4.61,0,0,1-1.76-1.94,7.33,7.33,0,0,1,0-6,4.61,4.61,0,0,1,1.76-1.94,4.84,4.84,0,0,1,2.55-.68A4.39,4.39,0,0,1,79,155.21Zm-4.26,2.22a4.37,4.37,0,0,0,0,5.31,3.16,3.16,0,0,0,2.42,1,3.4,3.4,0,0,0,1.71-.44A3.17,3.17,0,0,0,80,162a4.32,4.32,0,0,0,0-3.8,3.11,3.11,0,0,0-1.19-1.27,3.31,3.31,0,0,0-1.71-.45A3.16,3.16,0,0,0,74.7,157.43Z"/><path class="cls-1" d="M87.71,150.86v14.71H85.44V150.86Z"/><path class="cls-6" d="M47.94,10.14V16.6H21.15a9.6,9.6,0,0,0,.73-3.69,9.77,9.77,0,0,0-.41-2.77Z"/><path class="cls-6" d="M94.11,16.6H67.32V10.14H93.78a9.77,9.77,0,0,0-.41,2.77A9.42,9.42,0,0,0,94.11,16.6Z"/><path class="cls-7" d="M21.88,12.91a9.69,9.69,0,0,1-9.69,9.69,9.67,9.67,0,1,1,9.69-9.69Z"/><path class="cls-7" d="M112.75,12.91A9.68,9.68,0,0,1,94.11,16.6a9.5,9.5,0,0,1-.74-3.69,9.69,9.69,0,1,1,19.38,0Z"/><rect class="cls-6" x="47.94" y="3.22" width="19.38" height="19.38"/><path class="cls-6" d="M86.31,71,70.55,94.1H44.71L28.94,71,54.4,33.46V62.14a9.69,9.69,0,1,0,6.46,0V33.46Z"/><path class="cls-7" d="M60.86,33.46V62.14a9.33,9.33,0,0,0-3.23-.56V28.7Z"/><path class="cls-7" d="M57.63,28.7V61.58a10.21,10.21,0,0,0-2.16.24,7.76,7.76,0,0,0-1.07.32V33.46Z"/><path class="cls-6" d="M67.32,71.27A9.69,9.69,0,1,1,54.4,62.14a7.76,7.76,0,0,1,1.07-.32,10.21,10.21,0,0,1,2.16-.24,9.33,9.33,0,0,1,3.23.56A9.65,9.65,0,0,1,67.32,71.27Z"/><path class="cls-6" d="M86.7,110.25v3.23H28.56v-3.23A16.16,16.16,0,0,1,44.71,94.1H70.55A16.16,16.16,0,0,1,86.7,110.25Z"/></g></g></svg>