<svg xmlns="http://www.w3.org/2000/svg" viewBox="0 0 337 750.29"><defs><style>.cls-1{opacity:0.5;}.cls-2{fill:#fec478;}.cls-3{fill:#fea832;}.cls-4{fill:#994c0f;}.cls-5{fill:#713708;}.cls-6{fill:#ccefff;}.cls-7{fill:#ace3fc;}.cls-8{fill:#57565c;}.cls-9{fill:#3e3d42;}.cls-10{fill:#0c61c6;}.cls-11{fill:#0a4eaf;}.cls-12{fill:#f8d9ff;}.cls-13{fill:#f3c0ff;}.cls-14{fill:#723b7f;}.cls-15{fill:#5c3066;}.cls-16{fill:#2dea8f;}.cls-17{fill:#0e123b;}.cls-18{fill:none;stroke:#2dea8f;stroke-miterlimit:10;stroke-width:3px;}.cls-19{fill:#99ffeb;}.cls-20{fill:#4dffe5;}.cls-21{fill:#354e72;}.cls-22{fill:#2c4060;}.cls-23{fill:#ff5f96;}.cls-24{fill:#ff468c;}.cls-25{fill:#7f1d32;}.cls-26{fill:#66192d;}.cls-27{fill:#ff80e4;}.cls-28{fill:#ff5ad4;}.cls-29{fill:#7f1363;}.cls-30{fill:#661054;}</style></defs><g id="Capa_2" data-name="Capa 2"><g id="Capa_1-2" data-name="Capa 1"><g class="cls-1"><polygon points="5 6 5 86 45 86 85 86 85 6 45 6 5 6"/><polygon points="5 196.43 5 276.43 45 276.43 85 276.43 85 196.43 45 196.43 5 196.43"/><polygon points="5 101.43 5 181.43 45 181.43 85 181.43 85 101.43 45 101.43 5 101.43"/><polygon points="5 290.43 5 370.43 45 370.43 85 370.43 85 290.43 45 290.43 5 290.43"/><path d="M328.5,37.5h-183a8.5,8.5,0,0,0,0,17h183a8.5,8.5,0,0,0,0-17Z"/><path d="M326.5,133h-183a8.5,8.5,0,0,0,0,17h183a8.5,8.5,0,0,0,0-17Z"/><path d="M326.5,227.93h-183a8.49,8.49,0,0,0-7.47,4.45,8.37,8.37,0,0,0-1,4.05h0a8.51,8.51,0,0,0,8.5,8.5h183a8.5,8.5,0,0,0,8.5-8.5h0a8.48,8.48,0,0,0-8.5-8.5Z"/><path d="M326.5,321.93h-183a8.49,8.49,0,0,0-7.47,4.45,8.37,8.37,0,0,0-1,4.05h0a8.51,8.51,0,0,0,8.5,8.5h183a8.5,8.5,0,0,0,8.5-8.5h0a8.48,8.48,0,0,0-8.5-8.5Z"/></g><path class="cls-2" d="M80,80H0V0H80Z"/><path class="cls-3" d="M80,80H40V0H80Z"/><path class="cls-4" d="M75.31,75.31H4.69V4.69H75.31Z"/><path class="cls-5" d="M75.31,75.31H40V4.69H75.31Z"/><path class="cls-2" d="M32.39,28.44H37L47.06,55H41.68l-2.45-6.56H30L27.63,55H22.25Zm6,16.25L34.67,34.23,30.85,44.69Z"/><path class="cls-3" d="M49.53,32.66v-5h5v5Zm0,22.34V35.31h5V55Z"/><polygon class="cls-3" points="40 36.27 40 50.18 41.8 55 47.12 55 40 36.27"/><path class="cls-6" d="M80,270.43H0v-80H80Z"/><path class="cls-7" d="M80,270.43H40v-80H80Z"/><path class="cls-8" d="M75.31,265.74H4.69V195.12H75.31Z"/><path class="cls-9" d="M75.31,265.74H40V195.12H75.31Z"/><path class="cls-6" d="M25.31,245.43V218.87h5.16v22H44.06v4.53Z"/><path class="cls-7" d="M58.28,230.16c-4.34,0-6,2.25-6.56,3.35v11.92h-5V225.74h4.53v4.2c.35-.67,2.53-4.9,7-4.42v4.64Z"/><rect class="cls-7" x="40" y="240.9" width="4.06" height="4.53"/><path class="cls-6" d="M80,175.43H0v-80H80Z"/><path class="cls-7" d="M80,175.43H40v-80H80Z"/><path class="cls-10" d="M75.31,170.74H4.69V100.12H75.31Z"/><path class="cls-11" d="M75.31,170.74H40V100.12H75.31Z"/><path class="cls-6" d="M22,150.43V123.87H33.29c5.16,0,8.46,4.73,8.46,8.82,0,4.82-3.67,8.83-8.27,8.83H27.19v8.91ZM27.19,137h6c1.81,0,3.32-1.69,3.32-4.3,0-2.24-1.36-4.29-3.55-4.29H27.19Z"/><path class="cls-7" d="M52.31,150.8a14.23,14.23,0,0,1-8.89-3l1.88-3.15a12.91,12.91,0,0,0,6.9,2.58c1.9,0,3.22-.79,3.22-2.17,0-1.69-2.78-2.24-4.31-2.66-1.27-.35-7-1.16-7-5.48,0-4.16,3.62-6.49,7.72-6.49a10.94,10.94,0,0,1,7.69,2.7l-2,3a10.18,10.18,0,0,0-5.7-2.17c-1.83,0-3,.78-3,2.21,0,1.79,3.13,2.3,3.86,2.47,1.35.35,7.61,1.31,7.61,5.93C60.26,150,54.76,150.8,52.31,150.8Z"/><path class="cls-7" d="M40,127.36v10.75a9,9,0,0,0,0-10.75Z"/><path class="cls-12" d="M80,364.43H0v-80H80Z"/><path class="cls-13" d="M80,364.43H40v-80H80Z"/><path class="cls-14" d="M75.31,359.74H4.69V289.12H75.31Z"/><path class="cls-15" d="M75.31,359.74H40V289.12H75.31Z"/><path class="cls-12" d="M24.53,339.43V312.87H35.79c5.16,0,8.46,4.73,8.46,8.82,0,4.82-3.67,8.83-8.27,8.83H29.69v8.91ZM29.69,326h6c1.81,0,3.32-1.69,3.32-4.3,0-2.24-1.36-4.29-3.55-4.29H29.69Z"/><path class="cls-13" d="M59.06,324.12c-4.45,0-6.19,2.3-6.71,3.43v11.88h-5V319.74H52v4.2c.35-.67,2.53-4.9,7-4.42v4.6Z"/><path class="cls-13" d="M40,314V329.4a9,9,0,0,0,4.29-7.75A9.32,9.32,0,0,0,40,314Z"/><rect class="cls-16" x="132" y="31.5" width="200" height="17" rx="8.5"/><rect class="cls-16" x="130" y="126.95" width="200" height="17" rx="8.5"/><rect class="cls-17" x="130" y="221.93" width="200" height="17" rx="8.5"/><rect class="cls-16" x="130" y="221.93" width="183.26" height="17" rx="8.5"/><rect class="cls-18" x="130" y="221.93" width="200" height="17" rx="8.5"/><rect class="cls-17" x="130" y="315.93" width="200" height="17" rx="8.5"/><rect class="cls-16" x="130" y="315.93" width="183.26" height="17" rx="8.5"/><rect class="cls-18" x="130" y="315.93" width="200" height="17" rx="8.5"/><g class="cls-1"><polygon points="85 465.86 85 385.86 45 385.86 5 385.86 5 465.86 45 465.86 85 465.86"/><polygon points="5 576.29 5 656.29 45 656.29 85 656.29 85 576.29 45 576.29 5 576.29"/><polygon points="5 481.33 5 561.29 45 561.29 85 561.29 85 481.33 45 481.33 5 481.33"/><polygon points="5 670.29 5 750.29 45 750.29 85 750.29 85 670.29 45 670.29 5 670.29"/><path d="M143.5,434.36h183a8.5,8.5,0,0,0,0-17h-183a8.5,8.5,0,0,0,0,17Z"/><path d="M138.09,527.87c.21.17.43.33.66.49a9.06,9.06,0,0,0,1.44.78,7.25,7.25,0,0,0,.78.28,7.64,7.64,0,0,0,1.66.34,8.46,8.46,0,0,0,.87,0h183a8.5,8.5,0,0,0,0-17h-183a8.44,8.44,0,0,0-.87,0,8.29,8.29,0,0,0-1.66.34,7.31,7.31,0,0,0-.78.29,7.7,7.7,0,0,0-1.44.78,6.26,6.26,0,0,0-.66.49,8.33,8.33,0,0,0-1.15,1.15,8.5,8.5,0,0,0,0,10.81A9,9,0,0,0,138.09,527.87Z"/><path d="M326.5,607.79h-183a8.44,8.44,0,0,0-.87,0,8.29,8.29,0,0,0-1.66.34c-.26.08-.53.18-.78.28a8.36,8.36,0,0,0-1.44.79,6.26,6.26,0,0,0-.66.49,8.33,8.33,0,0,0-1.15,1.15,8.92,8.92,0,0,0-.92,1.35,8.55,8.55,0,0,0-1,4.06h0a8.47,8.47,0,0,0,1.94,5.4,9,9,0,0,0,1.15,1.16,8,8,0,0,0,.66.48,8.36,8.36,0,0,0,1.44.79,7.25,7.25,0,0,0,.78.28,8.29,8.29,0,0,0,1.66.34,8.46,8.46,0,0,0,.87,0h183a8.51,8.51,0,0,0,8.5-8.5h0a8.49,8.49,0,0,0-8.5-8.5Z"/><path d="M326.5,701.79h-183a8.44,8.44,0,0,0-.87,0,8.29,8.29,0,0,0-1.66.34c-.26.08-.53.18-.78.28a8.36,8.36,0,0,0-1.44.79,6.26,6.26,0,0,0-.66.49,8.33,8.33,0,0,0-1.15,1.15,8.92,8.92,0,0,0-.92,1.35,8.55,8.55,0,0,0-1,4.06h0a8.47,8.47,0,0,0,1.94,5.4,9,9,0,0,0,1.15,1.16,8,8,0,0,0,.66.48,8.36,8.36,0,0,0,1.44.79,7.25,7.25,0,0,0,.78.28,8.29,8.29,0,0,0,1.66.34,8.46,8.46,0,0,0,.87,0h183a8.51,8.51,0,0,0,8.5-8.5h0a8.49,8.49,0,0,0-8.5-8.5Z"/></g><path class="cls-12" d="M80,459.86H0v-80H80Z"/><path class="cls-13" d="M80,459.86H40v-80H80Z"/><path class="cls-14" d="M75.31,455.17H4.69V384.55H75.31Z"/><path class="cls-15" d="M75.31,455.17H40V384.55H75.31Z"/><path class="cls-12" d="M27.09,408.29h4.56l10.1,26.57H36.38l-2.45-6.57h-9.2l-2.41,6.57H17ZM33,424.7l-3.67-10.46L25.54,424.7Z"/><path class="cls-13" d="M52.81,435.32a10.18,10.18,0,1,1,0-20.36c5,0,10.24,3.3,10.24,10.08a16.35,16.35,0,0,1-.11,1.69H47.78c.08.78.9,4.91,5.21,4.91A5.08,5.08,0,0,0,57.64,429l4.32,1.2C61.23,431.68,58.78,435.32,52.81,435.32Zm5.1-11.87a5.11,5.11,0,0,0-10.2,0Z"/><polygon class="cls-13" points="40 430.35 40 434.86 41.72 434.86 40 430.35"/><path class="cls-19" d="M80,650.29H0v-80H80Z"/><path class="cls-20" d="M80,650.29H40v-80H80Z"/><path class="cls-21" d="M75.31,645.6H4.69V575H75.31Z"/><path class="cls-22" d="M75.31,645.6H40V575H75.31Z"/><path class="cls-19" d="M26.58,598.72h4.57l10.1,26.57H35.87l-2.44-6.57h-9.2l-2.41,6.57H16.44Zm6,16.25-3.67-10.46L25,615Z"/><path class="cls-20" d="M49.3,625.62c-4,0-6.18-2.64-6.18-7.72V605.6h5v11.21c0,3,1.09,4.54,3.25,4.54,2.9,0,4.46-2.36,5-3.56V605.6h5v13.87c0,.53.05,1.44,1.25,1.5v4.28a11.82,11.82,0,0,1-1.26.19l-.91,0c-2.45,0-3.09-1.6-3.18-2.32l-.12-1.58A9.08,9.08,0,0,1,49.3,625.62Z"/><polygon class="cls-20" points="40 621.81 40 625.29 41.32 625.29 40 621.81"/><path class="cls-23" d="M80,555.29H0v-80H80Z"/><path class="cls-24" d="M80,555.29H40v-80H80Z"/><path class="cls-25" d="M75.31,550.6H4.69V480H75.31Z"/><path class="cls-26" d="M75.31,550.6H40V480H75.31Z"/><path class="cls-23" d="M25.62,530.3V503.75h5.16V530.3Z"/><path class="cls-23" d="M43.71,530.71c-5.83,0-9.43-4.81-9.43-10.2,0-6.11,4.15-10.16,8.86-10.16a7.67,7.67,0,0,1,6.7,3.79V503H55v21.59c0,.52.69,1.47,1.09,1.5v4.27a11.11,11.11,0,0,1-2.16.26c-3.66,0-3.33-3.67-3.33-3.67A8,8,0,0,1,43.71,530.71Zm1.37-4.31a5.37,5.37,0,0,0,4.76-3.3v-4.68c-.2-.55-2-3.83-5.06-3.83-3.42,0-5.14,3.4-5.14,6A5.64,5.64,0,0,0,45.08,526.4Z"/><path class="cls-24" d="M55,524.56V503H49.84v11.17a7.54,7.54,0,0,0-6.6-3.79,8,8,0,0,0-3.24.7v7.58c.63-2.07,2.23-4,4.8-4,3.05,0,4.84,3.27,5,3.82v4.68a5.18,5.18,0,0,1-9.84-.6v7.34a9.07,9.07,0,0,0,3.82.81,7.87,7.87,0,0,0,6.83-3.79s-.33,3.67,3.3,3.67a10.93,10.93,0,0,0,2.14-.26v-4.24C55.69,526,55,525.08,55,524.56Z"/><path class="cls-27" d="M80,744.29H0v-80H80Z"/><path class="cls-28" d="M80,744.29H40v-80H80Z"/><path class="cls-29" d="M75.31,739.6H4.69V669H75.31Z"/><path class="cls-30" d="M75.31,739.6H40V669H75.31Z"/><path class="cls-27" d="M22.9,692.72l6.62,9.88,6.59-9.88h5.57l-9.46,13.47,9.16,13.1H35.81l-6.29-9.51-6.32,9.51H17.59l9.16-13.1-9.46-13.47Z"/><path class="cls-28" d="M50.74,719.69c-5.83,0-9.43-4.81-9.43-10.2,0-6.11,4.15-10.16,8.86-10.16a7.67,7.67,0,0,1,6.7,3.79V691.94H62v21.6c0,.53.69,1.48,1.09,1.5v4.28a12,12,0,0,1-2.15.26c-3.67,0-3.34-3.67-3.34-3.67A7.93,7.93,0,0,1,50.74,719.69Zm1.53-4.3a5.39,5.39,0,0,0,4.76-3.3V707.4c-.2-.55-2-3.83-5.06-3.83-3.42,0-5.14,3.4-5.14,6A5.64,5.64,0,0,0,52.27,715.39Z"/><polygon class="cls-28" points="40 692.72 40 695.16 41.71 692.72 40 692.72"/><polygon class="cls-28" points="40 719.29 41.41 719.29 40 717.27 40 719.29"/><rect class="cls-17" x="130" y="411.36" width="200" height="17" rx="8.5"/><rect class="cls-16" x="130" y="411.36" width="172.85" height="17" rx="8.5"/><rect class="cls-18" x="130" y="411.36" width="200" height="17" rx="8.5"/><rect class="cls-17" x="130" y="506.81" width="200" height="17" rx="8.5"/><rect class="cls-16" x="130" y="506.81" width="158.03" height="17" rx="8.5"/><rect class="cls-18" x="130" y="506.81" width="200" height="17" rx="8.5"/><rect class="cls-17" x="130" y="601.79" width="200" height="17" rx="8.5"/><rect class="cls-16" x="130" y="601.79" width="158.03" height="17" rx="8.5"/><rect class="cls-18" x="130" y="601.79" width="200" height="17" rx="8.5"/><rect class="cls-17" x="130" y="695.79" width="200" height="17" rx="8.5"/><rect class="cls-16" x="130" y="695.79" width="184.5" height="17" rx="8.5"/><rect class="cls-18" x="130" y="695.79" width="200" height="17" rx="8.5"/></g></g></svg>