<svg xmlns="http://www.w3.org/2000/svg" viewBox="0 0 794.15 370.43"><defs><style>.cls-1{opacity:0.5;}.cls-2{fill:#fec478;}.cls-3{fill:#fea832;}.cls-4{fill:#994c0f;}.cls-5{fill:#713708;}.cls-6{fill:#ccefff;}.cls-7{fill:#ace3fc;}.cls-8{fill:#57565c;}.cls-9{fill:#3e3d42;}.cls-10{fill:#0c61c6;}.cls-11{fill:#0a4eaf;}.cls-12{fill:#f8d9ff;}.cls-13{fill:#f3c0ff;}.cls-14{fill:#723b7f;}.cls-15{fill:#5c3066;}.cls-16{fill:#2dea8f;}.cls-17{fill:#0e123b;}.cls-18{fill:none;stroke:#2dea8f;stroke-miterlimit:10;stroke-width:3px;}.cls-19{fill:#99ffeb;}.cls-20{fill:#4dffe5;}.cls-21{fill:#354e72;}.cls-22{fill:#2c4060;}.cls-23{fill:#ff5f96;}.cls-24{fill:#ff468c;}.cls-25{fill:#7f1d32;}.cls-26{fill:#66192d;}.cls-27{fill:#ff80e4;}.cls-28{fill:#ff5ad4;}.cls-29{fill:#7f1363;}.cls-30{fill:#661054;}</style></defs><g id="Capa_2" data-name="Capa 2"><g id="Capa_1-2" data-name="Capa 1"><g class="cls-1"><polygon points="5 6 5 86 45 86 85 86 85 6 45 6 5 6"/><polygon points="5 196.43 5 276.43 45 276.43 85 276.43 85 196.43 45 196.43 5 196.43"/><polygon points="5 101.43 5 181.43 45 181.43 85 181.43 85 101.43 45 101.43 5 101.43"/><polygon points="5 290.43 5 370.43 45 370.43 85 370.43 85 290.43 45 290.43 5 290.43"/><path d="M328.5,37.5h-183a8.5,8.5,0,0,0,0,17h183a8.5,8.5,0,0,0,0-17Z"/><path d="M326.5,133h-183a8.5,8.5,0,0,0,0,17h183a8.5,8.5,0,0,0,0-17Z"/><path d="M326.5,227.93h-183a8.49,8.49,0,0,0-7.47,4.45,8.37,8.37,0,0,0-1,4.05h0a8.51,8.51,0,0,0,8.5,8.5h183a8.51,8.51,0,0,0,8.5-8.5h0a8.37,8.37,0,0,0-1-4.05A8.49,8.49,0,0,0,326.5,227.93Z"/><path d="M326.5,321.93h-183a8.49,8.49,0,0,0-7.47,4.45,8.37,8.37,0,0,0-1,4.05h0a8.51,8.51,0,0,0,8.5,8.5h183a8.51,8.51,0,0,0,8.5-8.5h0a8.37,8.37,0,0,0-1-4.05A8.49,8.49,0,0,0,326.5,321.93Z"/><polygon points="544.15 86 544.15 6 504.15 6 464.15 6 464.15 86 504.15 86 544.15 86"/><polygon points="464.15 196.43 464.15 276.43 504.15 276.43 544.15 276.43 544.15 196.43 504.15 196.43 464.15 196.43"/><polygon points="464.15 101.47 464.15 181.43 504.15 181.43 544.15 181.43 544.15 101.47 504.15 101.47 464.15 101.47"/><polygon points="464.15 290.43 464.15 370.43 504.15 370.43 544.15 370.43 544.15 290.43 504.15 290.43 464.15 290.43"/><path d="M602.65,54.5h183a8.5,8.5,0,0,0,0-17h-183a8.5,8.5,0,0,0,0,17Z"/><path d="M597.24,148a8.05,8.05,0,0,0,.66.49,8.32,8.32,0,0,0,1.44.78c.25.11.51.2.78.29a9,9,0,0,0,1.66.34c.28,0,.57,0,.87,0h183a8.5,8.5,0,0,0,0-17h-183a8.19,8.19,0,0,0-.87,0,9,9,0,0,0-1.66.34,6.58,6.58,0,0,0-.78.29,8.32,8.32,0,0,0-1.44.78,8.05,8.05,0,0,0-.66.49,8.92,8.92,0,0,0-1.15,1.15,8.51,8.51,0,0,0,0,10.82A8.92,8.92,0,0,0,597.24,148Z"/><path d="M785.65,227.93h-183a8.19,8.19,0,0,0-.87,0,9,9,0,0,0-1.66.34,6.58,6.58,0,0,0-.78.29,7.7,7.7,0,0,0-1.44.78,8.05,8.05,0,0,0-.66.49,8.92,8.92,0,0,0-1.15,1.15,9,9,0,0,0-.92,1.36,8.48,8.48,0,0,0-1,4.05h0a8.5,8.5,0,0,0,1.94,5.41,8.92,8.92,0,0,0,1.15,1.15c.21.17.43.33.66.49a8.32,8.32,0,0,0,1.44.78c.25.11.51.2.78.29a8.27,8.27,0,0,0,1.66.33,8.14,8.14,0,0,0,.87.05h183a8.51,8.51,0,0,0,8.5-8.5h0a8.37,8.37,0,0,0-1-4.05A8.49,8.49,0,0,0,785.65,227.93Z"/><path d="M785.65,321.93h-183a8.19,8.19,0,0,0-.87,0,9,9,0,0,0-1.66.34,6.58,6.58,0,0,0-.78.29,7.7,7.7,0,0,0-1.44.78,8.05,8.05,0,0,0-.66.49,8.92,8.92,0,0,0-1.15,1.15,9,9,0,0,0-.92,1.36,8.48,8.48,0,0,0-1,4.05h0a8.5,8.5,0,0,0,1.94,5.41,8.92,8.92,0,0,0,1.15,1.15c.21.17.43.33.66.49a8.32,8.32,0,0,0,1.44.78c.25.11.51.2.78.29a8.27,8.27,0,0,0,1.66.33,8.14,8.14,0,0,0,.87.05h183a8.51,8.51,0,0,0,8.5-8.5h0a8.37,8.37,0,0,0-1-4.05A8.49,8.49,0,0,0,785.65,321.93Z"/></g><path class="cls-2" d="M80,80H0V0H80Z"/><path class="cls-3" d="M80,80H40V0H80Z"/><path class="cls-4" d="M75.31,75.31H4.69V4.69H75.31Z"/><path class="cls-5" d="M75.31,75.31H40V4.69H75.31Z"/><path class="cls-2" d="M32.39,28.44H37L47.06,55H41.68l-2.45-6.56H30L27.63,55H22.25Zm6,16.25L34.67,34.23,30.85,44.69Z"/><path class="cls-3" d="M49.53,32.66v-5h5v5Zm0,22.34V35.31h5V55Z"/><polygon class="cls-3" points="40 36.27 40 50.18 41.8 55 47.12 55 40 36.27"/><path class="cls-6" d="M80,270.43H0v-80H80Z"/><path class="cls-7" d="M80,270.43H40v-80H80Z"/><path class="cls-8" d="M75.31,265.74H4.69V195.12H75.31Z"/><path class="cls-9" d="M75.31,265.74H40V195.12H75.31Z"/><path class="cls-6" d="M25.31,245.43V218.87h5.16v22H44.06v4.53Z"/><path class="cls-7" d="M58.28,230.16c-4.34,0-6,2.25-6.56,3.35v11.92h-5V225.74h4.53v4.2c.35-.67,2.53-4.9,7-4.42v4.64Z"/><rect class="cls-7" x="40" y="240.9" width="4.06" height="4.53"/><path class="cls-6" d="M80,175.43H0v-80H80Z"/><path class="cls-7" d="M80,175.43H40v-80H80Z"/><path class="cls-10" d="M75.31,170.74H4.69V100.12H75.31Z"/><path class="cls-11" d="M75.31,170.74H40V100.12H75.31Z"/><path class="cls-6" d="M22,150.43V123.87H33.29c5.15,0,8.46,4.73,8.46,8.82,0,4.82-3.67,8.83-8.27,8.83H27.19v8.91ZM27.19,137h6c1.81,0,3.32-1.69,3.32-4.3,0-2.24-1.36-4.29-3.55-4.29H27.19Z"/><path class="cls-7" d="M52.31,150.8a14.2,14.2,0,0,1-8.89-3l1.88-3.15a12.91,12.91,0,0,0,6.9,2.58c1.9,0,3.22-.79,3.22-2.17,0-1.69-2.79-2.24-4.31-2.66-1.28-.35-7-1.16-7-5.48,0-4.16,3.62-6.49,7.72-6.49a11,11,0,0,1,7.69,2.7l-2,3a10.15,10.15,0,0,0-5.7-2.17c-1.82,0-3,.78-3,2.21,0,1.79,3.14,2.3,3.87,2.47,1.35.35,7.61,1.31,7.61,5.93C60.26,150,54.76,150.8,52.31,150.8Z"/><path class="cls-7" d="M40,127.36v10.75a9,9,0,0,0,0-10.75Z"/><path class="cls-12" d="M80,364.43H0v-80H80Z"/><path class="cls-13" d="M80,364.43H40v-80H80Z"/><path class="cls-14" d="M75.31,359.74H4.69V289.12H75.31Z"/><path class="cls-15" d="M75.31,359.74H40V289.12H75.31Z"/><path class="cls-12" d="M24.53,339.43V312.87H35.79c5.15,0,8.46,4.73,8.46,8.82,0,4.82-3.67,8.83-8.27,8.83H29.69v8.91ZM29.69,326h6c1.81,0,3.32-1.69,3.32-4.3,0-2.24-1.36-4.29-3.55-4.29H29.69Z"/><path class="cls-13" d="M59.06,324.12c-4.45,0-6.19,2.3-6.72,3.43v11.88h-5V319.74H52v4.2c.35-.67,2.53-4.9,7-4.42v4.6Z"/><path class="cls-13" d="M40,314V329.4a9,9,0,0,0,4.28-7.75A9.31,9.31,0,0,0,40,314Z"/><rect class="cls-16" x="132" y="31.5" width="200" height="17" rx="8.5"/><rect class="cls-16" x="130" y="126.95" width="200" height="17" rx="8.5"/><rect class="cls-17" x="130" y="221.93" width="200" height="17" rx="8.5"/><rect class="cls-16" x="130" y="221.93" width="183.26" height="17" rx="8.5"/><rect class="cls-18" x="130" y="221.93" width="200" height="17" rx="8.5"/><rect class="cls-17" x="130" y="315.93" width="200" height="17" rx="8.5"/><rect class="cls-16" x="130" y="315.93" width="183.26" height="17" rx="8.5"/><rect class="cls-18" x="130" y="315.93" width="200" height="17" rx="8.5"/><path class="cls-12" d="M539.15,80h-80V0h80Z"/><path class="cls-13" d="M539.15,80h-40V0h40Z"/><path class="cls-14" d="M534.46,75.31H463.84V4.69h70.62Z"/><path class="cls-15" d="M534.46,75.31H499.15V4.69h35.31Z"/><path class="cls-12" d="M486.23,28.44h4.57L500.9,55h-5.38l-2.44-6.56h-9.2L481.47,55H476.1Zm6,16.4-3.67-10.46-3.83,10.46Z"/><path class="cls-13" d="M512,55.46a10.18,10.18,0,1,1,0-20.36c5,0,10.24,3.31,10.24,10.09a16.33,16.33,0,0,1-.11,1.68H506.93c.07.78.9,4.92,5.21,4.92a5.09,5.09,0,0,0,4.65-2.67l4.31,1.2C520.38,51.82,517.92,55.46,512,55.46Zm5.1-11.87a5.11,5.11,0,0,0-10.2,0Z"/><polygon class="cls-13" points="499.15 50.49 499.15 55 500.86 55 499.15 50.49"/><path class="cls-19" d="M539.15,270.43h-80v-80h80Z"/><path class="cls-20" d="M539.15,270.43h-40v-80h40Z"/><path class="cls-21" d="M534.46,265.74H463.84V195.12h70.62Z"/><path class="cls-22" d="M534.46,265.74H499.15V195.12h35.31Z"/><path class="cls-19" d="M485.73,218.87h4.57l10.1,26.56H495l-2.45-6.56h-9.19L481,245.43h-5.38Zm6,16.25L488,224.65l-3.82,10.47Z"/><path class="cls-20" d="M508.45,245.77c-4,0-6.18-2.64-6.18-7.73v-12.3h5V237c0,3,1.09,4.54,3.25,4.54,2.89,0,4.46-2.36,5-3.56V225.74h5v13.88c0,.52.06,1.44,1.25,1.5v4.27a11.33,11.33,0,0,1-1.25.19c-.34,0-.64,0-.92,0-2.44,0-3.08-1.6-3.18-2.33l-.11-1.57A9.08,9.08,0,0,1,508.45,245.77Z"/><polygon class="cls-20" points="499.15 241.95 499.15 245.43 500.47 245.43 499.15 241.95"/><path class="cls-23" d="M539.15,175.43h-80v-80h80Z"/><path class="cls-24" d="M539.15,175.43h-40v-80h40Z"/><path class="cls-25" d="M534.46,170.74H463.84V100.16h70.62Z"/><path class="cls-26" d="M534.46,170.74H499.15V100.16h35.31Z"/><path class="cls-23" d="M484.77,150.44V123.89h5.16v26.55Z"/><path class="cls-23" d="M502.86,150.85c-5.83,0-9.44-4.81-9.44-10.2,0-6.11,4.16-10.15,8.87-10.15a7.7,7.7,0,0,1,6.7,3.78V123.11h5.16V144.7c0,.53.69,1.48,1.09,1.5v4.27a11.24,11.24,0,0,1-2.16.27c-3.66,0-3.33-3.68-3.33-3.68A8,8,0,0,1,502.86,150.85Zm1.37-4.31a5.39,5.39,0,0,0,4.76-3.29v-4.69c-.2-.55-2-3.82-5.06-3.82-3.42,0-5.14,3.39-5.14,6A5.63,5.63,0,0,0,504.23,146.54Z"/><path class="cls-24" d="M514.15,144.7V123.11H509v11.17a7.58,7.58,0,0,0-6.6-3.78,8,8,0,0,0-3.24.69v7.58c.63-2.07,2.23-4,4.8-4,3.05,0,4.84,3.27,5,3.82v4.69a5.18,5.18,0,0,1-9.84-.61V150a9.22,9.22,0,0,0,3.82.8A7.87,7.87,0,0,0,509.8,147s-.33,3.68,3.3,3.68a11.07,11.07,0,0,0,2.14-.27V146.2C514.84,146.18,514.15,145.23,514.15,144.7Z"/><path class="cls-27" d="M539.15,364.43h-80v-80h80Z"/><path class="cls-28" d="M539.15,364.43h-40v-80h40Z"/><path class="cls-29" d="M534.46,359.74H463.84V289.12h70.62Z"/><path class="cls-30" d="M534.46,359.74H499.15V289.12h35.31Z"/><path class="cls-27" d="M482.05,312.87l6.62,9.87,6.59-9.87h5.57l-9.47,13.46,9.17,13.1H495l-6.29-9.5-6.32,9.5h-5.61l9.16-13.1-9.46-13.46Z"/><path class="cls-28" d="M509.89,339.83c-5.83,0-9.43-4.8-9.43-10.19,0-6.12,4.15-10.17,8.86-10.17a7.69,7.69,0,0,1,6.7,3.79V312.09h5.16v21.59c0,.53.69,1.48,1.09,1.5v4.28a12,12,0,0,1-2.16.26c-3.66,0-3.33-3.67-3.33-3.67A7.93,7.93,0,0,1,509.89,339.83Zm1.53-4.3a5.41,5.41,0,0,0,4.76-3.3v-4.69c-.2-.55-2-3.82-5.06-3.82-3.42,0-5.14,3.39-5.14,6A5.64,5.64,0,0,0,511.42,335.53Z"/><polygon class="cls-28" points="499.15 312.87 499.15 315.3 500.86 312.87 499.15 312.87"/><polygon class="cls-28" points="499.15 339.43 500.56 339.43 499.15 337.42 499.15 339.43"/><rect class="cls-17" x="589.15" y="31.5" width="200" height="17" rx="8.5"/><rect class="cls-16" x="589.15" y="31.5" width="172.85" height="17" rx="8.5"/><rect class="cls-18" x="589.15" y="31.5" width="200" height="17" rx="8.5"/><rect class="cls-17" x="589.15" y="126.95" width="200" height="17" rx="8.5"/><rect class="cls-16" x="589.15" y="126.95" width="158.03" height="17" rx="8.5"/><rect class="cls-18" x="589.15" y="126.95" width="200" height="17" rx="8.5"/><rect class="cls-17" x="589.15" y="221.93" width="200" height="17" rx="8.5"/><rect class="cls-16" x="589.15" y="221.93" width="158.03" height="17" rx="8.5"/><rect class="cls-18" x="589.15" y="221.93" width="200" height="17" rx="8.5"/><rect class="cls-17" x="589.15" y="315.93" width="200" height="17" rx="8.5"/><rect class="cls-16" x="589.15" y="315.93" width="184.5" height="17" rx="8.5"/><rect class="cls-18" x="589.15" y="315.93" width="200" height="17" rx="8.5"/></g></g></svg>