<svg xmlns="http://www.w3.org/2000/svg" viewBox="0 0 2508.65 2684.72"><defs><style>.cls-1,.cls-7{fill:none;stroke:#0e123b;stroke-linecap:round;}.cls-1,.cls-2,.cls-7{stroke-miterlimit:10;}.cls-1{stroke-width:30px;}.cls-2{fill:#2dea8f;stroke:#2dea8f;stroke-width:2px;}.cls-3{font-size:135px;}.cls-3,.cls-4,.cls-6,.cls-8,.cls-9{fill:#fff;}.cls-3,.cls-4{font-family:Poppins-SemiBold, Poppins;font-weight:600;}.cls-4{font-size:100px;}.cls-5,.cls-9{font-size:80px;font-family:Poppins-Medium, Poppins;font-weight:500;}.cls-7{stroke-width:5px;}.cls-8{font-size:55px;font-family:Poppins-Regular, Poppins;}</style></defs><g id="Capa_2" data-name="Capa 2"><g id="Capa_1-2" data-name="Capa 1"><line class="cls-1" x1="36.02" y1="60.32" x2="36.02" y2="2653.05"/><rect class="cls-2" x="1" y="80.8" width="70.03" height="34.56" rx="12"/><text class="cls-3" transform="translate(102.32 115.36)">2020</text><rect class="cls-2" x="1" y="672" width="70.03" height="34.56" rx="12"/><text class="cls-3" transform="translate(102.32 706.56)">2019</text><text class="cls-4" transform="translate(105.32 833.34)">GLOBALPAS<tspan class="cls-5"><tspan x="0" y="96">COMMUNITY MANAGER</tspan></tspan></text><path class="cls-6" d="M196.45,993.13a16.18,16.18,0,0,1-6.95,6.77,23.67,23.67,0,0,1-11,2.39H166.15V963.52h12.32a24.18,24.18,0,0,1,11,2.33,15.88,15.88,0,0,1,6.95,6.71,23.5,23.5,0,0,1,0,20.57Zm-6.76.75q4-3.92,4-11t-4-11q-4-3.93-11.64-3.93h-6.93v29.86h6.93Q185.67,997.78,189.69,993.88Z"/><path class="cls-6" d="M205.64,961a4,4,0,0,1,5,0,3.14,3.14,0,0,1,0,4.46,4,4,0,0,1-5,0,3.12,3.12,0,0,1,0-4.46Zm5,11.09v30.19h-5V972.1Z"/><path class="cls-6" d="M236.3,974.38a11.25,11.25,0,0,1,3.77,7.18h-4.79a6.93,6.93,0,0,0-2.22-4.43A7.24,7.24,0,0,0,228,975.4a6.29,6.29,0,0,0-4.21,1.29,4.34,4.34,0,0,0-1.51,3.49,3.61,3.61,0,0,0,1,2.67,6.46,6.46,0,0,0,2.53,1.54c1,.35,2.39.72,4.15,1.13a40.8,40.8,0,0,1,5.42,1.56,8.53,8.53,0,0,1,3.52,2.56,7.19,7.19,0,0,1,1.45,4.73,7.44,7.44,0,0,1-2.77,6,11.22,11.22,0,0,1-7.4,2.31,14.19,14.19,0,0,1-8.8-2.59,10.33,10.33,0,0,1-4-7.2h4.84a6.31,6.31,0,0,0,2.4,4.45,8.6,8.6,0,0,0,5.58,1.71,5.8,5.8,0,0,0,4-1.32,4.47,4.47,0,0,0,1.46-3.47,3.76,3.76,0,0,0-1-2.8,6.76,6.76,0,0,0-2.58-1.6,36.69,36.69,0,0,0-4.24-1.15,43.36,43.36,0,0,1-5.36-1.54,8.29,8.29,0,0,1-3.41-2.45,6.88,6.88,0,0,1-1.4-4.54,7.59,7.59,0,0,1,2.8-6.13,11.58,11.58,0,0,1,7.65-2.34A12.17,12.17,0,0,1,236.3,974.38Z"/><path class="cls-6" d="M274.61,988.27H250.46c.11,3.44,1.1,6,2.95,7.75a9.61,9.61,0,0,0,6.79,2.59,9.83,9.83,0,0,0,6.08-1.85,7.59,7.59,0,0,0,3-4.92h5.34a12.62,12.62,0,0,1-7.37,9.46,16.26,16.26,0,0,1-6.82,1.38,15.62,15.62,0,0,1-7.7-1.87,13.19,13.19,0,0,1-5.25-5.37,16.92,16.92,0,0,1-1.9-8.22,17.09,17.09,0,0,1,1.9-8.25,13.12,13.12,0,0,1,5.25-5.39,15.51,15.51,0,0,1,7.7-1.87,15.16,15.16,0,0,1,7.67,1.87,13,13,0,0,1,5,5,14.14,14.14,0,0,1,1.73,6.93A14.64,14.64,0,0,1,274.61,988.27Zm-5.94-8a8,8,0,0,0-3.47-3.36,10.56,10.56,0,0,0-4.78-1.1,9.88,9.88,0,0,0-6.93,2.56c-1.87,1.7-2.88,4.21-3,7.51h19.31A10.29,10.29,0,0,0,268.67,980.24Z"/><path class="cls-6" d="M305.79,975q3.25,3.39,3.25,9.77v17.54h-5v-17.1q0-4.52-2.31-6.93a8.23,8.23,0,0,0-6.27-2.42,8.6,8.6,0,0,0-6.6,2.66q-2.48,2.67-2.47,7.79v16h-5V972.1h5v7.15a10.25,10.25,0,0,1,4.1-5.67,11.86,11.86,0,0,1,6.79-2A11.27,11.27,0,0,1,305.79,975Zm-12-11.46a10.69,10.69,0,0,1,1.81,1.1,13.4,13.4,0,0,0,1.57.93,3.16,3.16,0,0,0,1.35.28,2.14,2.14,0,0,0,1.62-.66,3.37,3.37,0,0,0,.8-1.93h2.8a7.53,7.53,0,0,1-1.78,4.24,4.68,4.68,0,0,1-3.55,1.48,5,5,0,0,1-2-.38,13.72,13.72,0,0,1-1.9-1.1,7.61,7.61,0,0,0-1.43-.88,3,3,0,0,0-1.32-.28c-1.35,0-2.14.86-2.36,2.59H286.6a7.89,7.89,0,0,1,1.79-4.35,4.58,4.58,0,0,1,3.49-1.43A4.31,4.31,0,0,1,293.75,963.52Z"/><path class="cls-6" d="M338.22,973.58a13.44,13.44,0,0,1,5.39,5.39,16.77,16.77,0,0,1,1.95,8.25,16.6,16.6,0,0,1-1.95,8.22,13.52,13.52,0,0,1-5.39,5.37,17.14,17.14,0,0,1-15.57,0,13.65,13.65,0,0,1-5.42-5.37,16.4,16.4,0,0,1-2-8.22,16.57,16.57,0,0,1,2-8.25,13.58,13.58,0,0,1,5.42-5.39,17.14,17.14,0,0,1,15.57,0Zm-12.76,3.74a9.09,9.09,0,0,0-3.69,3.71,12.56,12.56,0,0,0-1.4,6.19,12.4,12.4,0,0,0,1.4,6.13,9.12,9.12,0,0,0,3.69,3.72,10.83,10.83,0,0,0,10,0,9.18,9.18,0,0,0,3.69-3.72,12.4,12.4,0,0,0,1.4-6.13,12.56,12.56,0,0,0-1.4-6.19,9.15,9.15,0,0,0-3.69-3.71,10.83,10.83,0,0,0-10,0Z"/><path class="cls-6" d="M385.52,973.91a11.52,11.52,0,0,1,4.26,5.89V961.59h5v40.7h-5v-7.7a11.52,11.52,0,0,1-4.26,5.89,12.47,12.47,0,0,1-7.46,2.2,13.77,13.77,0,0,1-7.15-1.87,13,13,0,0,1-4.92-5.37,17.85,17.85,0,0,1-1.79-8.22A18,18,0,0,1,366,979a12.88,12.88,0,0,1,4.92-5.39,13.67,13.67,0,0,1,7.15-1.87A12.4,12.4,0,0,1,385.52,973.91Zm-13.43,5.2q-2.77,2.94-2.77,8.11t2.77,8.11a9.69,9.69,0,0,0,7.4,2.95,10.25,10.25,0,0,0,5.31-1.38,9.58,9.58,0,0,0,3.66-3.88,12.25,12.25,0,0,0,1.32-5.8,12.43,12.43,0,0,0-1.32-5.83,9.34,9.34,0,0,0-3.66-3.88,10.43,10.43,0,0,0-5.31-1.34A9.72,9.72,0,0,0,372.09,979.11Z"/><path class="cls-6" d="M430.31,988.27H406.17c.11,3.44,1.09,6,2.94,7.75a9.62,9.62,0,0,0,6.79,2.59,9.81,9.81,0,0,0,6.08-1.85,7.65,7.65,0,0,0,3-4.92h5.33a12.62,12.62,0,0,1-7.37,9.46,16.23,16.23,0,0,1-6.82,1.38,15.65,15.65,0,0,1-7.7-1.87,13.31,13.31,0,0,1-5.25-5.37,16.92,16.92,0,0,1-1.9-8.22,17.09,17.09,0,0,1,1.9-8.25,13.24,13.24,0,0,1,5.25-5.39,15.54,15.54,0,0,1,7.7-1.87,15.2,15.2,0,0,1,7.68,1.87,12.94,12.94,0,0,1,5,5,14,14,0,0,1,1.73,6.93A14.64,14.64,0,0,1,430.31,988.27Zm-5.94-8a8,8,0,0,0-3.46-3.36,10.6,10.6,0,0,0-4.79-1.1,9.88,9.88,0,0,0-6.93,2.56c-1.87,1.7-2.88,4.21-3,7.51h19.3A10.2,10.2,0,0,0,424.37,980.24Z"/><path class="cls-6" d="M470.49,973.91a11.52,11.52,0,0,1,4.26,5.89v-7.7h5v30.69a15.35,15.35,0,0,1-1.76,7.42,12.75,12.75,0,0,1-4.95,5.06,14.79,14.79,0,0,1-7.43,1.82,15.92,15.92,0,0,1-9.95-3,13,13,0,0,1-4.9-7.94h5a8.59,8.59,0,0,0,3.33,4.75,10.62,10.62,0,0,0,6.3,1.74,9.22,9.22,0,0,0,6.73-2.62,9.72,9.72,0,0,0,2.67-7.28v-8.2a11.52,11.52,0,0,1-4.26,5.89,12.46,12.46,0,0,1-7.45,2.2,13.74,13.74,0,0,1-7.15-1.87,13,13,0,0,1-4.93-5.37,17.85,17.85,0,0,1-1.78-8.22A18,18,0,0,1,451,979a13,13,0,0,1,4.93-5.39,13.65,13.65,0,0,1,7.15-1.87A12.39,12.39,0,0,1,470.49,973.91Zm-13.42,5.2q-2.77,2.94-2.78,8.11t2.78,8.11a9.67,9.67,0,0,0,7.4,2.95,10.19,10.19,0,0,0,5.3-1.38,9.58,9.58,0,0,0,3.66-3.88,12.25,12.25,0,0,0,1.32-5.8,12.43,12.43,0,0,0-1.32-5.83,9.34,9.34,0,0,0-3.66-3.88,10.36,10.36,0,0,0-5.3-1.34A9.7,9.7,0,0,0,457.07,979.11Z"/><path class="cls-6" d="M497.08,973.33a13,13,0,0,1,6.82-1.73v5.45h-1.54a10.7,10.7,0,0,0-6.93,2.17c-1.8,1.45-2.69,3.84-2.69,7.18v15.89h-5V972.1h5v6.1A11.11,11.11,0,0,1,497.08,973.33Z"/><path class="cls-6" d="M528.68,973.91a11.52,11.52,0,0,1,4.26,5.89v-7.7h5v30.19h-5v-7.7a11.52,11.52,0,0,1-4.26,5.89,12.46,12.46,0,0,1-7.45,2.2,13.74,13.74,0,0,1-7.15-1.87,13,13,0,0,1-4.93-5.37,17.85,17.85,0,0,1-1.78-8.22,18,18,0,0,1,1.78-8.25,12.9,12.9,0,0,1,4.93-5.39,13.65,13.65,0,0,1,7.15-1.87A12.39,12.39,0,0,1,528.68,973.91Zm-13.42,5.2q-2.78,2.94-2.78,8.11t2.78,8.11a9.67,9.67,0,0,0,7.4,2.95,10.22,10.22,0,0,0,5.3-1.38,9.58,9.58,0,0,0,3.66-3.88,12.25,12.25,0,0,0,1.32-5.8,12.43,12.43,0,0,0-1.32-5.83,9.34,9.34,0,0,0-3.66-3.88,10.39,10.39,0,0,0-5.3-1.34A9.7,9.7,0,0,0,515.26,979.11Zm16.47-15.81L520,969.73v-3.57l11.71-6.93Z"/><path class="cls-6" d="M553.7,966.32q-1.56,1.42-1.56,4.95v.83h7.15v4.4h-7.15v25.79h-5V976.5h-4.34v-4.4h4.34v-1.21q0-10.85,12.16-10.34V965Q555.27,964.89,553.7,966.32Z"/><path class="cls-6" d="M564.79,961a4,4,0,0,1,4.94,0,3.12,3.12,0,0,1,0,4.46,4,4,0,0,1-4.94,0,3.12,3.12,0,0,1,0-4.46Zm4.94,11.09v30.19h-5V972.1Z"/><path class="cls-6" d="M600.7,974.79a13.05,13.05,0,0,1,4.68,8.25H600.1a7.76,7.76,0,0,0-3-5.09,9.87,9.87,0,0,0-6.08-1.84,9.68,9.68,0,0,0-4.81,1.21,8.79,8.79,0,0,0-3.49,3.71,15.07,15.07,0,0,0,0,12.38,8.79,8.79,0,0,0,3.49,3.71,10.53,10.53,0,0,0,10.89-.66,7.85,7.85,0,0,0,3-5.11h5.28a13,13,0,0,1-4.68,8.27,14.76,14.76,0,0,1-9.57,3.06,15.62,15.62,0,0,1-7.7-1.87,13.19,13.19,0,0,1-5.25-5.37,16.92,16.92,0,0,1-1.9-8.22,17.09,17.09,0,0,1,1.9-8.25,13.12,13.12,0,0,1,5.25-5.39,15.51,15.51,0,0,1,7.7-1.87A14.71,14.71,0,0,1,600.7,974.79Z"/><path class="cls-6" d="M631.75,973.91A11.52,11.52,0,0,1,636,979.8v-7.7h5v30.19h-5v-7.7a11.52,11.52,0,0,1-4.26,5.89,12.47,12.47,0,0,1-7.46,2.2,13.77,13.77,0,0,1-7.15-1.87,13,13,0,0,1-4.92-5.37,17.85,17.85,0,0,1-1.78-8.22,18,18,0,0,1,1.78-8.25,13,13,0,0,1,4.92-5.39,13.67,13.67,0,0,1,7.15-1.87A12.4,12.4,0,0,1,631.75,973.91Zm-13.42,5.2q-2.77,2.94-2.78,8.11t2.78,8.11a9.66,9.66,0,0,0,7.4,2.95,10.24,10.24,0,0,0,5.3-1.38,9.58,9.58,0,0,0,3.66-3.88,12.25,12.25,0,0,0,1.32-5.8,12.43,12.43,0,0,0-1.32-5.83,9.34,9.34,0,0,0-3.66-3.88,10.41,10.41,0,0,0-5.3-1.34A9.69,9.69,0,0,0,618.33,979.11Z"/><path class="cls-6" d="M666.67,974.38a11.25,11.25,0,0,1,3.77,7.18h-4.79a6.93,6.93,0,0,0-2.22-4.43,7.24,7.24,0,0,0-5.09-1.73,6.29,6.29,0,0,0-4.21,1.29,4.34,4.34,0,0,0-1.51,3.49,3.61,3.61,0,0,0,1,2.67,6.46,6.46,0,0,0,2.53,1.54,42.78,42.78,0,0,0,4.15,1.13,40.8,40.8,0,0,1,5.42,1.56,8.59,8.59,0,0,1,3.52,2.56,7.19,7.19,0,0,1,1.45,4.73,7.44,7.44,0,0,1-2.77,6,11.22,11.22,0,0,1-7.4,2.31,14.17,14.17,0,0,1-8.8-2.59,10.33,10.33,0,0,1-4-7.2h4.84a6.31,6.31,0,0,0,2.4,4.45,8.6,8.6,0,0,0,5.58,1.71,5.8,5.8,0,0,0,4-1.32,4.47,4.47,0,0,0,1.46-3.47,3.76,3.76,0,0,0-1-2.8,6.76,6.76,0,0,0-2.58-1.6,36.69,36.69,0,0,0-4.24-1.15,43.36,43.36,0,0,1-5.36-1.54,8.29,8.29,0,0,1-3.41-2.45,6.88,6.88,0,0,1-1.4-4.54,7.59,7.59,0,0,1,2.8-6.13,11.58,11.58,0,0,1,7.65-2.34A12.17,12.17,0,0,1,666.67,974.38Z"/><path class="cls-6" d="M714.82,973.58a13,13,0,0,1,4.93,5.39,18,18,0,0,1,1.78,8.25,17.85,17.85,0,0,1-1.78,8.22,13,13,0,0,1-4.93,5.37,13.74,13.74,0,0,1-7.15,1.87,12.34,12.34,0,0,1-7.45-2.23,11.38,11.38,0,0,1-4.21-5.86v22h-5V972.1h5v7.7a11.34,11.34,0,0,1,4.21-5.86,12.28,12.28,0,0,1,7.45-2.23A13.65,13.65,0,0,1,714.82,973.58ZM701,977.51a9.32,9.32,0,0,0-3.68,3.88,12.43,12.43,0,0,0-1.32,5.83,12.25,12.25,0,0,0,1.32,5.8A9.56,9.56,0,0,0,701,996.9a10.3,10.3,0,0,0,5.28,1.38,9.76,9.76,0,0,0,7.46-2.95q2.77-2.94,2.77-8.11t-2.77-8.11a9.79,9.79,0,0,0-7.46-2.94A10.47,10.47,0,0,0,701,977.51Z"/><path class="cls-6" d="M747.91,973.91a11.52,11.52,0,0,1,4.26,5.89v-7.7h5v30.19h-5v-7.7a11.52,11.52,0,0,1-4.26,5.89,12.47,12.47,0,0,1-7.46,2.2,13.77,13.77,0,0,1-7.15-1.87,13,13,0,0,1-4.92-5.37,17.85,17.85,0,0,1-1.79-8.22,18,18,0,0,1,1.79-8.25,12.88,12.88,0,0,1,4.92-5.39,13.67,13.67,0,0,1,7.15-1.87A12.4,12.4,0,0,1,747.91,973.91Zm-13.42,5.2c-1.86,2-2.78,4.66-2.78,8.11s.92,6.15,2.78,8.11a9.65,9.65,0,0,0,7.39,2.95,10.25,10.25,0,0,0,5.31-1.38,9.58,9.58,0,0,0,3.66-3.88,12.25,12.25,0,0,0,1.32-5.8,12.43,12.43,0,0,0-1.32-5.83,9.34,9.34,0,0,0-3.66-3.88,10.43,10.43,0,0,0-5.31-1.34A9.68,9.68,0,0,0,734.49,979.11Z"/><path class="cls-6" d="M774.5,973.33a12.94,12.94,0,0,1,6.82-1.73v5.45h-1.54a10.66,10.66,0,0,0-6.93,2.17q-2.7,2.17-2.7,7.18v15.89h-5V972.1h5v6.1A11.13,11.13,0,0,1,774.5,973.33Z"/><path class="cls-6" d="M806.1,973.91a11.52,11.52,0,0,1,4.26,5.89v-7.7h5v30.19h-5v-7.7a11.52,11.52,0,0,1-4.26,5.89,12.47,12.47,0,0,1-7.46,2.2,13.77,13.77,0,0,1-7.15-1.87,13,13,0,0,1-4.92-5.37,17.85,17.85,0,0,1-1.79-8.22,18,18,0,0,1,1.79-8.25,12.88,12.88,0,0,1,4.92-5.39,13.67,13.67,0,0,1,7.15-1.87A12.4,12.4,0,0,1,806.1,973.91Zm-13.42,5.2c-1.86,2-2.78,4.66-2.78,8.11s.92,6.15,2.78,8.11a9.65,9.65,0,0,0,7.39,2.95,10.25,10.25,0,0,0,5.31-1.38A9.58,9.58,0,0,0,809,993a12.25,12.25,0,0,0,1.32-5.8,12.43,12.43,0,0,0-1.32-5.83,9.34,9.34,0,0,0-3.66-3.88,10.43,10.43,0,0,0-5.31-1.34A9.68,9.68,0,0,0,792.68,979.11Z"/><path class="cls-6" d="M846.27,973.33a13,13,0,0,1,6.82-1.73v5.45h-1.54a10.7,10.7,0,0,0-6.93,2.17c-1.8,1.45-2.69,3.84-2.69,7.18v15.89h-5V972.1h5v6.1A11.11,11.11,0,0,1,846.27,973.33Z"/><path class="cls-6" d="M885.6,988.27H861.45c.11,3.44,1.09,6,2.94,7.75a9.65,9.65,0,0,0,6.8,2.59,9.78,9.78,0,0,0,6.07-1.85,7.65,7.65,0,0,0,3-4.92h5.34a12.62,12.62,0,0,1-7.37,9.46,16.26,16.26,0,0,1-6.82,1.38,15.59,15.59,0,0,1-7.7-1.87,13.27,13.27,0,0,1-5.26-5.37,17,17,0,0,1-1.89-8.22,17.2,17.2,0,0,1,1.89-8.25,13.2,13.2,0,0,1,5.26-5.39,15.49,15.49,0,0,1,7.7-1.87,15.16,15.16,0,0,1,7.67,1.87,12.87,12.87,0,0,1,5,5,14,14,0,0,1,1.74,6.93A15.54,15.54,0,0,1,885.6,988.27Zm-5.94-8a8,8,0,0,0-3.47-3.36,10.56,10.56,0,0,0-4.78-1.1,9.88,9.88,0,0,0-6.93,2.56c-1.87,1.7-2.88,4.21-3,7.51h19.31A10.29,10.29,0,0,0,879.66,980.24Z"/><path class="cls-6" d="M912.19,973.91a11.52,11.52,0,0,1,4.26,5.89V961.59h5v40.7h-5v-7.7a11.52,11.52,0,0,1-4.26,5.89,12.46,12.46,0,0,1-7.45,2.2,13.74,13.74,0,0,1-7.15-1.87,13,13,0,0,1-4.93-5.37,17.85,17.85,0,0,1-1.78-8.22,18,18,0,0,1,1.78-8.25,12.9,12.9,0,0,1,4.93-5.39,13.65,13.65,0,0,1,7.15-1.87A12.39,12.39,0,0,1,912.19,973.91Zm-13.42,5.2q-2.78,2.94-2.78,8.11t2.78,8.11a9.67,9.67,0,0,0,7.4,2.95,10.22,10.22,0,0,0,5.3-1.38,9.58,9.58,0,0,0,3.66-3.88,12.25,12.25,0,0,0,1.32-5.8,12.43,12.43,0,0,0-1.32-5.83,9.34,9.34,0,0,0-3.66-3.88,10.39,10.39,0,0,0-5.3-1.34A9.7,9.7,0,0,0,898.77,979.11Z"/><path class="cls-6" d="M957,988.27H932.84c.11,3.44,1.09,6,2.94,7.75a9.63,9.63,0,0,0,6.8,2.59,9.78,9.78,0,0,0,6.07-1.85,7.65,7.65,0,0,0,3-4.92H957a12.62,12.62,0,0,1-7.37,9.46,16.26,16.26,0,0,1-6.82,1.38,15.59,15.59,0,0,1-7.7-1.87,13.27,13.27,0,0,1-5.26-5.37,17,17,0,0,1-1.89-8.22,17.2,17.2,0,0,1,1.89-8.25,13.2,13.2,0,0,1,5.26-5.39,15.49,15.49,0,0,1,7.7-1.87,15.16,15.16,0,0,1,7.67,1.87,12.87,12.87,0,0,1,5,5,14,14,0,0,1,1.74,6.93A15.54,15.54,0,0,1,957,988.27Zm-5.94-8a8,8,0,0,0-3.47-3.36,10.59,10.59,0,0,0-4.78-1.1,9.88,9.88,0,0,0-6.93,2.56c-1.87,1.7-2.88,4.21-3,7.51h19.31A10.29,10.29,0,0,0,951.05,980.24Z"/><path class="cls-6" d="M981.43,974.38a11.25,11.25,0,0,1,3.77,7.18h-4.78a6.94,6.94,0,0,0-2.23-4.43,7.24,7.24,0,0,0-5.09-1.73,6.29,6.29,0,0,0-4.21,1.29,4.34,4.34,0,0,0-1.51,3.49,3.61,3.61,0,0,0,1,2.67,6.53,6.53,0,0,0,2.53,1.54c1,.35,2.39.72,4.15,1.13a40.8,40.8,0,0,1,5.42,1.56,8.53,8.53,0,0,1,3.52,2.56,7.19,7.19,0,0,1,1.46,4.73,7.44,7.44,0,0,1-2.78,6,11.2,11.2,0,0,1-7.4,2.31,14.19,14.19,0,0,1-8.8-2.59,10.29,10.29,0,0,1-4-7.2h4.84a6.3,6.3,0,0,0,2.39,4.45,8.6,8.6,0,0,0,5.58,1.71,5.8,5.8,0,0,0,4-1.32,4.47,4.47,0,0,0,1.46-3.47,3.8,3.8,0,0,0-1-2.8,6.88,6.88,0,0,0-2.59-1.6,37,37,0,0,0-4.23-1.15,43.07,43.07,0,0,1-5.37-1.54,8.29,8.29,0,0,1-3.41-2.45,6.88,6.88,0,0,1-1.4-4.54,7.6,7.6,0,0,1,2.81-6.13,11.55,11.55,0,0,1,7.64-2.34A12.17,12.17,0,0,1,981.43,974.38Z"/><path class="cls-6" d="M1023.45,974.38a11.25,11.25,0,0,1,3.77,7.18h-4.78a6.94,6.94,0,0,0-2.23-4.43,7.24,7.24,0,0,0-5.09-1.73,6.29,6.29,0,0,0-4.21,1.29,4.34,4.34,0,0,0-1.51,3.49,3.61,3.61,0,0,0,1,2.67,6.53,6.53,0,0,0,2.53,1.54c1,.35,2.39.72,4.15,1.13a40.8,40.8,0,0,1,5.42,1.56,8.53,8.53,0,0,1,3.52,2.56,7.19,7.19,0,0,1,1.46,4.73,7.44,7.44,0,0,1-2.78,6,11.2,11.2,0,0,1-7.4,2.31,14.19,14.19,0,0,1-8.8-2.59,10.29,10.29,0,0,1-4-7.2h4.84a6.3,6.3,0,0,0,2.39,4.45,8.6,8.6,0,0,0,5.58,1.71,5.8,5.8,0,0,0,4-1.32,4.47,4.47,0,0,0,1.46-3.47,3.76,3.76,0,0,0-1.05-2.8,6.76,6.76,0,0,0-2.58-1.6,37,37,0,0,0-4.23-1.15,43.07,43.07,0,0,1-5.37-1.54,8.29,8.29,0,0,1-3.41-2.45,6.88,6.88,0,0,1-1.4-4.54,7.6,7.6,0,0,1,2.81-6.13,11.55,11.55,0,0,1,7.64-2.34A12.17,12.17,0,0,1,1023.45,974.38Z"/><path class="cls-6" d="M1055.68,973.58a13.38,13.38,0,0,1,5.39,5.39,16.77,16.77,0,0,1,2,8.25,16.6,16.6,0,0,1-2,8.22,13.46,13.46,0,0,1-5.39,5.37,17.12,17.12,0,0,1-15.56,0,13.65,13.65,0,0,1-5.42-5.37,16.4,16.4,0,0,1-2-8.22,16.57,16.57,0,0,1,2-8.25,13.58,13.58,0,0,1,5.42-5.39,17.12,17.12,0,0,1,15.56,0Zm-12.76,3.74a9.07,9.07,0,0,0-3.68,3.71,12.46,12.46,0,0,0-1.41,6.19,12.3,12.3,0,0,0,1.41,6.13,9.1,9.1,0,0,0,3.68,3.72,10.85,10.85,0,0,0,10,0,9.1,9.1,0,0,0,3.68-3.72,12.3,12.3,0,0,0,1.41-6.13,12.46,12.46,0,0,0-1.41-6.19,9.07,9.07,0,0,0-3.68-3.71,10.85,10.85,0,0,0-10,0Z"/><path class="cls-6" d="M1092.5,974.79a13.05,13.05,0,0,1,4.68,8.25h-5.28a7.76,7.76,0,0,0-3-5.09,9.87,9.87,0,0,0-6.08-1.84,9.68,9.68,0,0,0-4.81,1.21,8.79,8.79,0,0,0-3.49,3.71,15.17,15.17,0,0,0,0,12.38,8.79,8.79,0,0,0,3.49,3.71,10.53,10.53,0,0,0,10.89-.66,7.85,7.85,0,0,0,3-5.11h5.28a13,13,0,0,1-4.68,8.27,14.76,14.76,0,0,1-9.57,3.06,15.65,15.65,0,0,1-7.7-1.87,13.31,13.31,0,0,1-5.25-5.37,17,17,0,0,1-1.9-8.22A17.21,17.21,0,0,1,1070,979a13.24,13.24,0,0,1,5.25-5.39,15.54,15.54,0,0,1,7.7-1.87A14.71,14.71,0,0,1,1092.5,974.79Z"/><path class="cls-6" d="M1103.78,961a4,4,0,0,1,5,0,3.14,3.14,0,0,1,0,4.46,4,4,0,0,1-5,0,3.12,3.12,0,0,1,0-4.46Zm5,11.09v30.19h-5V972.1Z"/><path class="cls-6" d="M1136.59,973.91a11.52,11.52,0,0,1,4.26,5.89v-7.7h5v30.19h-5v-7.7a11.52,11.52,0,0,1-4.26,5.89,12.47,12.47,0,0,1-7.46,2.2,13.77,13.77,0,0,1-7.15-1.87,13,13,0,0,1-4.92-5.37,17.85,17.85,0,0,1-1.79-8.22,18,18,0,0,1,1.79-8.25,12.88,12.88,0,0,1,4.92-5.39,13.67,13.67,0,0,1,7.15-1.87A12.4,12.4,0,0,1,1136.59,973.91Zm-13.42,5.2c-1.86,2-2.78,4.66-2.78,8.11s.92,6.15,2.78,8.11a9.65,9.65,0,0,0,7.39,2.95,10.25,10.25,0,0,0,5.31-1.38,9.58,9.58,0,0,0,3.66-3.88,12.25,12.25,0,0,0,1.32-5.8,12.43,12.43,0,0,0-1.32-5.83,9.34,9.34,0,0,0-3.66-3.88,10.43,10.43,0,0,0-5.31-1.34A9.68,9.68,0,0,0,1123.17,979.11Z"/><path class="cls-6" d="M1158.83,961.59v40.7h-5v-40.7Z"/><path class="cls-6" d="M1194.42,988.27h-24.15c.11,3.44,1.09,6,3,7.75a9.61,9.61,0,0,0,6.79,2.59,9.83,9.83,0,0,0,6.08-1.85,7.59,7.59,0,0,0,3-4.92h5.34a12.62,12.62,0,0,1-7.37,9.46,16.26,16.26,0,0,1-6.82,1.38,15.59,15.59,0,0,1-7.7-1.87,13.19,13.19,0,0,1-5.25-5.37,16.92,16.92,0,0,1-1.9-8.22,17.09,17.09,0,0,1,1.9-8.25,13.12,13.12,0,0,1,5.25-5.39,15.49,15.49,0,0,1,7.7-1.87,15.16,15.16,0,0,1,7.67,1.87,13,13,0,0,1,5,5,14.14,14.14,0,0,1,1.73,6.93A15.54,15.54,0,0,1,1194.42,988.27Zm-5.94-8a8,8,0,0,0-3.47-3.36,10.56,10.56,0,0,0-4.78-1.1,9.88,9.88,0,0,0-6.93,2.56c-1.87,1.7-2.88,4.21-3,7.51h19.31A10.29,10.29,0,0,0,1188.48,980.24Z"/><path class="cls-6" d="M1218.87,974.38a11.24,11.24,0,0,1,3.76,7.18h-4.78a6.89,6.89,0,0,0-2.23-4.43,7.22,7.22,0,0,0-5.09-1.73,6.26,6.26,0,0,0-4.2,1.29,4.35,4.35,0,0,0-1.52,3.49,3.61,3.61,0,0,0,1,2.67,6.53,6.53,0,0,0,2.53,1.54c1,.35,2.39.72,4.15,1.13a40.36,40.36,0,0,1,5.42,1.56,8.46,8.46,0,0,1,3.52,2.56,7.19,7.19,0,0,1,1.46,4.73,7.44,7.44,0,0,1-2.78,6,11.2,11.2,0,0,1-7.4,2.31,14.21,14.21,0,0,1-8.8-2.59,10.29,10.29,0,0,1-4-7.2h4.84a6.3,6.3,0,0,0,2.39,4.45,8.6,8.6,0,0,0,5.58,1.71,5.83,5.83,0,0,0,4-1.32,4.46,4.46,0,0,0,1.45-3.47,3.8,3.8,0,0,0-1-2.8,6.88,6.88,0,0,0-2.59-1.6,36.43,36.43,0,0,0-4.23-1.15,42.35,42.35,0,0,1-5.36-1.54,8.23,8.23,0,0,1-3.41-2.45,6.83,6.83,0,0,1-1.41-4.54,7.6,7.6,0,0,1,2.81-6.13,11.57,11.57,0,0,1,7.64-2.34A12.21,12.21,0,0,1,1218.87,974.38Z"/><path class="cls-6" d="M1245.6,961.26a36.28,36.28,0,0,1,10.53-13.36H1261v.49q-14.57,11.82-14.57,31.74t14.57,31.79v.49h-4.89a37,37,0,0,1-10.53-13.36,46.73,46.73,0,0,1,0-37.79Z"/><path class="cls-6" d="M1269.27,963.52v38.77h-5V963.52Z"/><path class="cls-6" d="M1301.72,975q3.26,3.39,3.25,9.77v17.54h-5v-17.1q0-4.52-2.31-6.93a8.23,8.23,0,0,0-6.27-2.42,8.6,8.6,0,0,0-6.6,2.66q-2.47,2.67-2.47,7.79v16h-5V972.1h5v7.15a10.28,10.28,0,0,1,4.09-5.67,11.91,11.91,0,0,1,6.8-2A11.27,11.27,0,0,1,1301.72,975Z"/><path class="cls-6" d="M1330.35,974.38a11.25,11.25,0,0,1,3.77,7.18h-4.79a6.89,6.89,0,0,0-2.23-4.43,7.21,7.21,0,0,0-5.08-1.73,6.29,6.29,0,0,0-4.21,1.29,4.34,4.34,0,0,0-1.51,3.49,3.64,3.64,0,0,0,1,2.67,6.6,6.6,0,0,0,2.53,1.54c1,.35,2.4.72,4.16,1.13a40.6,40.6,0,0,1,5.41,1.56,8.46,8.46,0,0,1,3.52,2.56,7.13,7.13,0,0,1,1.46,4.73,7.42,7.42,0,0,1-2.78,6,11.17,11.17,0,0,1-7.39,2.31,14.17,14.17,0,0,1-8.8-2.59,10.3,10.3,0,0,1-4-7.2h4.84a6.33,6.33,0,0,0,2.39,4.45,8.65,8.65,0,0,0,5.59,1.71,5.8,5.8,0,0,0,4-1.32,4.47,4.47,0,0,0,1.46-3.47,3.76,3.76,0,0,0-1-2.8,6.84,6.84,0,0,0-2.58-1.6,36.69,36.69,0,0,0-4.24-1.15,42.85,42.85,0,0,1-5.36-1.54,8.23,8.23,0,0,1-3.41-2.45,6.83,6.83,0,0,1-1.4-4.54,7.59,7.59,0,0,1,2.8-6.13,11.58,11.58,0,0,1,7.65-2.34A12.17,12.17,0,0,1,1330.35,974.38Z"/><path class="cls-6" d="M1355.51,997.89v4.4h-3.74q-4.62,0-6.9-2.2c-1.52-1.47-2.28-3.92-2.28-7.37V976.44h-4.51V972.1h4.51v-7.54h5.06v7.54h7.81v4.34h-7.81v16.39c0,1.94.35,3.27,1.07,4a5.17,5.17,0,0,0,3.71,1.07Z"/><path class="cls-6" d="M1381.44,973.91a11.48,11.48,0,0,1,4.27,5.89v-7.7h5v30.19h-5v-7.7a11.48,11.48,0,0,1-4.27,5.89,12.44,12.44,0,0,1-7.45,2.2,13.74,13.74,0,0,1-7.15-1.87,13,13,0,0,1-4.92-5.37,17.85,17.85,0,0,1-1.79-8.22,18,18,0,0,1,1.79-8.25,12.88,12.88,0,0,1,4.92-5.39,13.65,13.65,0,0,1,7.15-1.87A12.37,12.37,0,0,1,1381.44,973.91Zm-13.42,5.2q-2.77,2.94-2.77,8.11t2.77,8.11a9.67,9.67,0,0,0,7.4,2.95,10.25,10.25,0,0,0,5.31-1.38,9.58,9.58,0,0,0,3.66-3.88,12.25,12.25,0,0,0,1.32-5.8,12.43,12.43,0,0,0-1.32-5.83,9.34,9.34,0,0,0-3.66-3.88,10.43,10.43,0,0,0-5.31-1.34A9.7,9.7,0,0,0,1368,979.11Z"/><path class="cls-6" d="M1418.51,973.91a11.48,11.48,0,0,1,4.27,5.89v-7.7h5v30.69a15.35,15.35,0,0,1-1.76,7.42,12.62,12.62,0,0,1-5,5.06,14.77,14.77,0,0,1-7.43,1.82,16,16,0,0,1-10-3,12.93,12.93,0,0,1-4.89-7.94h5a8.52,8.52,0,0,0,3.32,4.75,10.62,10.62,0,0,0,6.3,1.74,9.26,9.26,0,0,0,6.74-2.62,9.72,9.72,0,0,0,2.67-7.28v-8.2a11.48,11.48,0,0,1-4.27,5.89,12.44,12.44,0,0,1-7.45,2.2,13.74,13.74,0,0,1-7.15-1.87,13,13,0,0,1-4.92-5.37,17.85,17.85,0,0,1-1.79-8.22A18,18,0,0,1,1399,979a12.88,12.88,0,0,1,4.92-5.39,13.65,13.65,0,0,1,7.15-1.87A12.37,12.37,0,0,1,1418.51,973.91Zm-13.42,5.2q-2.77,2.94-2.78,8.11t2.78,8.11a9.67,9.67,0,0,0,7.4,2.95,10.25,10.25,0,0,0,5.31-1.38,9.58,9.58,0,0,0,3.66-3.88,12.25,12.25,0,0,0,1.32-5.8,12.43,12.43,0,0,0-1.32-5.83,9.34,9.34,0,0,0-3.66-3.88,10.43,10.43,0,0,0-5.31-1.34A9.7,9.7,0,0,0,1405.09,979.11Z"/><path class="cls-6" d="M1445.11,973.33a12.94,12.94,0,0,1,6.82-1.73v5.45h-1.54a10.66,10.66,0,0,0-6.93,2.17q-2.7,2.17-2.7,7.18v15.89h-5V972.1h5v6.1A11.13,11.13,0,0,1,1445.11,973.33Z"/><path class="cls-6" d="M1476.7,973.91a11.48,11.48,0,0,1,4.27,5.89v-7.7h5v30.19h-5v-7.7a11.48,11.48,0,0,1-4.27,5.89,12.44,12.44,0,0,1-7.45,2.2,13.74,13.74,0,0,1-7.15-1.87,13,13,0,0,1-4.92-5.37,17.85,17.85,0,0,1-1.79-8.22,18,18,0,0,1,1.79-8.25,12.88,12.88,0,0,1,4.92-5.39,13.65,13.65,0,0,1,7.15-1.87A12.37,12.37,0,0,1,1476.7,973.91Zm-13.42,5.2q-2.77,2.94-2.78,8.11t2.78,8.11a9.67,9.67,0,0,0,7.4,2.95,10.25,10.25,0,0,0,5.31-1.38,9.5,9.5,0,0,0,3.65-3.88,12.25,12.25,0,0,0,1.33-5.8,12.44,12.44,0,0,0-1.33-5.83,9.26,9.26,0,0,0-3.65-3.88,10.43,10.43,0,0,0-5.31-1.34A9.7,9.7,0,0,0,1463.28,979.11Z"/><path class="cls-6" d="M1539.57,975q3.21,3.39,3.22,9.77v17.54h-5v-17.1c0-3-.72-5.25-2.17-6.82a7.7,7.7,0,0,0-6-2.37,8.19,8.19,0,0,0-6.35,2.61q-2.4,2.61-2.4,7.68v16h-5v-17.1c0-3-.73-5.25-2.2-6.82a7.72,7.72,0,0,0-5.94-2.37,8.28,8.28,0,0,0-6.41,2.61q-2.38,2.61-2.39,7.68v16h-5V972.1h5V979a9.77,9.77,0,0,1,3.93-5.47,12.28,12.28,0,0,1,13.2,0,10.64,10.64,0,0,1,4.05,5.75,10.88,10.88,0,0,1,4.23-5.69,11.7,11.7,0,0,1,6.71-2A11.21,11.21,0,0,1,1539.57,975Z"/><path class="cls-6" d="M1566.21,972.1l9.79,23.76,9.08-23.76h5.55l-17.93,44.49H1567l6.27-14.79-12.71-29.7Z"/><path class="cls-6" d="M1630.73,963.52v4.07h-16.94V981h14.35v3.9h-14.35v17.38h-5V963.52Z"/><path class="cls-6" d="M1656.5,973.91a11.52,11.52,0,0,1,4.26,5.89v-7.7h5v30.19h-5v-7.7a11.52,11.52,0,0,1-4.26,5.89,12.47,12.47,0,0,1-7.46,2.2,13.77,13.77,0,0,1-7.15-1.87,13,13,0,0,1-4.92-5.37,17.85,17.85,0,0,1-1.79-8.22A18,18,0,0,1,1637,979a12.88,12.88,0,0,1,4.92-5.39,13.67,13.67,0,0,1,7.15-1.87A12.4,12.4,0,0,1,1656.5,973.91Zm-13.42,5.2c-1.86,2-2.78,4.66-2.78,8.11s.92,6.15,2.78,8.11a9.65,9.65,0,0,0,7.39,2.95,10.25,10.25,0,0,0,5.31-1.38,9.58,9.58,0,0,0,3.66-3.88,12.25,12.25,0,0,0,1.32-5.8,12.43,12.43,0,0,0-1.32-5.83,9.34,9.34,0,0,0-3.66-3.88,10.43,10.43,0,0,0-5.31-1.34A9.68,9.68,0,0,0,1643.08,979.11Z"/><path class="cls-6" d="M1696.67,974.79a13.05,13.05,0,0,1,4.68,8.25h-5.28a7.76,7.76,0,0,0-3-5.09,9.87,9.87,0,0,0-6.08-1.84,9.68,9.68,0,0,0-4.81,1.21,8.79,8.79,0,0,0-3.49,3.71,15.17,15.17,0,0,0,0,12.38,8.79,8.79,0,0,0,3.49,3.71,10.53,10.53,0,0,0,10.89-.66,7.85,7.85,0,0,0,3-5.11h5.28a13,13,0,0,1-4.68,8.27,14.76,14.76,0,0,1-9.57,3.06,15.65,15.65,0,0,1-7.7-1.87,13.25,13.25,0,0,1-5.25-5.37,16.92,16.92,0,0,1-1.9-8.22,17.09,17.09,0,0,1,1.9-8.25,13.18,13.18,0,0,1,5.25-5.39,15.54,15.54,0,0,1,7.7-1.87A14.71,14.71,0,0,1,1696.67,974.79Z"/><path class="cls-6" d="M1735.45,988.27H1711.3c.11,3.44,1.09,6,2.94,7.75a9.65,9.65,0,0,0,6.8,2.59,9.78,9.78,0,0,0,6.07-1.85,7.65,7.65,0,0,0,3-4.92h5.34a12.62,12.62,0,0,1-7.37,9.46,16.26,16.26,0,0,1-6.82,1.38,15.59,15.59,0,0,1-7.7-1.87,13.27,13.27,0,0,1-5.26-5.37,17,17,0,0,1-1.89-8.22,17.2,17.2,0,0,1,1.89-8.25,13.2,13.2,0,0,1,5.26-5.39,15.49,15.49,0,0,1,7.7-1.87,15.16,15.16,0,0,1,7.67,1.87,12.87,12.87,0,0,1,5,5,14,14,0,0,1,1.74,6.93A15.54,15.54,0,0,1,1735.45,988.27Zm-5.94-8a8,8,0,0,0-3.47-3.36,10.59,10.59,0,0,0-4.78-1.1,9.88,9.88,0,0,0-6.93,2.56c-1.87,1.7-2.88,4.21-3,7.51h19.31A10.29,10.29,0,0,0,1729.51,980.24Z"/><path class="cls-6" d="M1766,973.58A12.88,12.88,0,0,1,1771,979a18,18,0,0,1,1.79,8.25,17.85,17.85,0,0,1-1.79,8.22,13,13,0,0,1-4.92,5.37,13.77,13.77,0,0,1-7.15,1.87,12.35,12.35,0,0,1-7.46-2.23,11.36,11.36,0,0,1-4.2-5.86v7.7h-5v-40.7h5V979.8a11.32,11.32,0,0,1,4.2-5.86,12.29,12.29,0,0,1,7.46-2.23A13.67,13.67,0,0,1,1766,973.58Zm-13.86,3.93a9.28,9.28,0,0,0-3.69,3.88,12.43,12.43,0,0,0-1.32,5.83,12.25,12.25,0,0,0,1.32,5.8,9.52,9.52,0,0,0,3.69,3.88,10.25,10.25,0,0,0,5.28,1.38,9.74,9.74,0,0,0,7.45-2.95q2.77-2.94,2.78-8.11t-2.78-8.11a9.77,9.77,0,0,0-7.45-2.94A10.42,10.42,0,0,0,1752.17,977.51Z"/><path class="cls-6" d="M1800.76,973.58a13.38,13.38,0,0,1,5.39,5.39,16.77,16.77,0,0,1,1.95,8.25,16.6,16.6,0,0,1-1.95,8.22,13.46,13.46,0,0,1-5.39,5.37,17.14,17.14,0,0,1-15.57,0,13.63,13.63,0,0,1-5.41-5.37,16.4,16.4,0,0,1-2-8.22,16.57,16.57,0,0,1,2-8.25,13.55,13.55,0,0,1,5.41-5.39,17.14,17.14,0,0,1,15.57,0ZM1788,977.32a9.15,9.15,0,0,0-3.69,3.71,12.56,12.56,0,0,0-1.4,6.19,12.4,12.4,0,0,0,1.4,6.13,9.18,9.18,0,0,0,3.69,3.72,10.83,10.83,0,0,0,10,0,9.12,9.12,0,0,0,3.69-3.72,12.4,12.4,0,0,0,1.4-6.13,12.56,12.56,0,0,0-1.4-6.19,9.09,9.09,0,0,0-3.69-3.71,10.83,10.83,0,0,0-10,0Z"/><path class="cls-6" d="M1836.12,973.58a13.38,13.38,0,0,1,5.39,5.39,16.78,16.78,0,0,1,2,8.25,16.6,16.6,0,0,1-2,8.22,13.46,13.46,0,0,1-5.39,5.37,17.12,17.12,0,0,1-15.56,0,13.65,13.65,0,0,1-5.42-5.37,16.4,16.4,0,0,1-2-8.22,16.57,16.57,0,0,1,2-8.25,13.58,13.58,0,0,1,5.42-5.39,17.12,17.12,0,0,1,15.56,0Zm-12.76,3.74a9.07,9.07,0,0,0-3.68,3.71,12.46,12.46,0,0,0-1.41,6.19,12.3,12.3,0,0,0,1.41,6.13,9.1,9.1,0,0,0,3.68,3.72,10.85,10.85,0,0,0,10,0,9.1,9.1,0,0,0,3.68-3.72,12.3,12.3,0,0,0,1.41-6.13A12.46,12.46,0,0,0,1837,981a9.07,9.07,0,0,0-3.68-3.71,10.85,10.85,0,0,0-10,0Z"/><path class="cls-6" d="M1866.56,1002.29,1855,988.71v13.58h-5v-40.7h5v23.65l11.39-13.14h6.1l-13.52,15,13.85,15.18Z"/><path class="cls-6" d="M1887.93,999a37.1,37.1,0,0,1-10.53,13.39h-4.89v-.49Q1887,1000,1887,980.13a42.74,42.74,0,0,0-3.6-17.74,38.39,38.39,0,0,0-10.91-14v-.49h4.89a36.49,36.49,0,0,1,10.53,13.36,46.66,46.66,0,0,1,0,37.76Z"/><path class="cls-6" d="M188.86,1059.33H171.81l-3.24,9h-5.39l14.35-38.06h5.67l14.3,38.06h-5.39Zm-1.43-3.91-7.09-19.58-7.1,19.58Z"/><path class="cls-6" d="M220.24,1040.38a11.25,11.25,0,0,1,3.77,7.18h-4.79a6.93,6.93,0,0,0-2.22-4.43,7.24,7.24,0,0,0-5.09-1.73,6.29,6.29,0,0,0-4.21,1.29,4.34,4.34,0,0,0-1.51,3.49,3.61,3.61,0,0,0,1,2.67,6.46,6.46,0,0,0,2.53,1.54,42.78,42.78,0,0,0,4.15,1.13,41.26,41.26,0,0,1,5.42,1.56,8.59,8.59,0,0,1,3.52,2.56,7.19,7.19,0,0,1,1.45,4.73,7.44,7.44,0,0,1-2.77,6,11.22,11.22,0,0,1-7.4,2.31,14.19,14.19,0,0,1-8.8-2.59,10.33,10.33,0,0,1-4-7.2h4.84a6.31,6.31,0,0,0,2.4,4.45,8.6,8.6,0,0,0,5.58,1.71,5.8,5.8,0,0,0,4-1.32,4.47,4.47,0,0,0,1.46-3.47,3.76,3.76,0,0,0-1.05-2.8,6.84,6.84,0,0,0-2.58-1.6,36.69,36.69,0,0,0-4.24-1.15,43.36,43.36,0,0,1-5.36-1.54,8.29,8.29,0,0,1-3.41-2.45,6.88,6.88,0,0,1-1.4-4.54,7.59,7.59,0,0,1,2.8-6.13,11.58,11.58,0,0,1,7.65-2.34A12.17,12.17,0,0,1,220.24,1040.38Z"/><path class="cls-6" d="M258.55,1054.27H234.4c.11,3.44,1.09,6,2.95,7.75a9.61,9.61,0,0,0,6.79,2.59,9.83,9.83,0,0,0,6.08-1.85,7.59,7.59,0,0,0,3-4.92h5.34a12.62,12.62,0,0,1-7.37,9.46,16.26,16.26,0,0,1-6.82,1.38,15.59,15.59,0,0,1-7.7-1.87,13.19,13.19,0,0,1-5.25-5.37,16.92,16.92,0,0,1-1.9-8.22,17.09,17.09,0,0,1,1.9-8.25,13.12,13.12,0,0,1,5.25-5.39,15.49,15.49,0,0,1,7.7-1.87,15.16,15.16,0,0,1,7.67,1.87,13,13,0,0,1,5,5,14.14,14.14,0,0,1,1.73,6.93A14.64,14.64,0,0,1,258.55,1054.27Zm-5.94-8a8,8,0,0,0-3.47-3.36,10.56,10.56,0,0,0-4.78-1.1,9.88,9.88,0,0,0-6.93,2.56c-1.87,1.7-2.88,4.21-3,7.51h19.31A10.29,10.29,0,0,0,252.61,1046.24Z"/><path class="cls-6" d="M283,1040.38a11.24,11.24,0,0,1,3.76,7.18H282a6.89,6.89,0,0,0-2.23-4.43,7.22,7.22,0,0,0-5.09-1.73,6.26,6.26,0,0,0-4.2,1.29,4.35,4.35,0,0,0-1.52,3.49,3.61,3.61,0,0,0,1,2.67,6.53,6.53,0,0,0,2.53,1.54c1,.35,2.39.72,4.15,1.13a40.36,40.36,0,0,1,5.42,1.56,8.46,8.46,0,0,1,3.52,2.56,7.19,7.19,0,0,1,1.46,4.73,7.44,7.44,0,0,1-2.78,6,11.2,11.2,0,0,1-7.4,2.31,14.21,14.21,0,0,1-8.8-2.59,10.29,10.29,0,0,1-4-7.2h4.84a6.3,6.3,0,0,0,2.39,4.45,8.6,8.6,0,0,0,5.58,1.71,5.83,5.83,0,0,0,4.05-1.32,4.46,4.46,0,0,0,1.45-3.47,3.8,3.8,0,0,0-1-2.8,6.88,6.88,0,0,0-2.59-1.6,36.43,36.43,0,0,0-4.23-1.15,42.35,42.35,0,0,1-5.36-1.54,8.23,8.23,0,0,1-3.41-2.45,6.83,6.83,0,0,1-1.41-4.54,7.6,7.6,0,0,1,2.81-6.13,11.57,11.57,0,0,1,7.64-2.34A12.21,12.21,0,0,1,283,1040.38Z"/><path class="cls-6" d="M315.23,1039.58a13.44,13.44,0,0,1,5.39,5.39,16.77,16.77,0,0,1,1.95,8.25,16.6,16.6,0,0,1-1.95,8.22,13.52,13.52,0,0,1-5.39,5.37,17.14,17.14,0,0,1-15.57,0,13.65,13.65,0,0,1-5.42-5.37,16.4,16.4,0,0,1-2-8.22,16.57,16.57,0,0,1,2-8.25,13.58,13.58,0,0,1,5.42-5.39,17.14,17.14,0,0,1,15.57,0Zm-12.76,3.74a9.09,9.09,0,0,0-3.69,3.71,12.56,12.56,0,0,0-1.4,6.19,12.4,12.4,0,0,0,1.4,6.13,9.12,9.12,0,0,0,3.69,3.72,10.83,10.83,0,0,0,9.95,0,9.18,9.18,0,0,0,3.69-3.72,12.4,12.4,0,0,0,1.4-6.13,12.56,12.56,0,0,0-1.4-6.19,9.15,9.15,0,0,0-3.69-3.71,10.83,10.83,0,0,0-9.95,0Z"/><path class="cls-6" d="M338.46,1039.33a13,13,0,0,1,6.82-1.73v5.45h-1.54a10.7,10.7,0,0,0-6.93,2.17q-2.69,2.17-2.69,7.18v15.89h-5V1038.1h5v6.1A11.17,11.17,0,0,1,338.46,1039.33Z"/><path class="cls-6" d="M370.06,1039.91a11.46,11.46,0,0,1,4.26,5.89v-7.7h5v30.19h-5v-7.7a11.46,11.46,0,0,1-4.26,5.89,12.46,12.46,0,0,1-7.45,2.2,13.74,13.74,0,0,1-7.15-1.87,13,13,0,0,1-4.93-5.37,17.85,17.85,0,0,1-1.78-8.22,18,18,0,0,1,1.78-8.25,13,13,0,0,1,4.93-5.39,13.65,13.65,0,0,1,7.15-1.87A12.39,12.39,0,0,1,370.06,1039.91Zm-13.42,5.2q-2.77,2.94-2.78,8.11t2.78,8.11a9.67,9.67,0,0,0,7.4,3,10.19,10.19,0,0,0,5.3-1.38A9.58,9.58,0,0,0,373,1059a12.25,12.25,0,0,0,1.32-5.8,12.43,12.43,0,0,0-1.32-5.83,9.34,9.34,0,0,0-3.66-3.88,10.36,10.36,0,0,0-5.3-1.34A9.7,9.7,0,0,0,356.64,1045.11Z"/><path class="cls-6" d="M432.92,1041q3.22,3.39,3.22,9.77v17.54h-5v-17.1c0-3-.73-5.25-2.18-6.82a7.66,7.66,0,0,0-6-2.37,8.23,8.23,0,0,0-6.36,2.61q-2.38,2.61-2.39,7.68v16h-5v-17.1c0-3-.74-5.25-2.2-6.82a7.72,7.72,0,0,0-5.94-2.37,8.26,8.26,0,0,0-6.41,2.61c-1.6,1.74-2.39,4.3-2.39,7.68v16h-5V1038.1h5V1045a9.77,9.77,0,0,1,3.93-5.47,12.28,12.28,0,0,1,13.2,0,10.63,10.63,0,0,1,4,5.75,10.89,10.89,0,0,1,4.24-5.69,11.68,11.68,0,0,1,6.71-2A11.18,11.18,0,0,1,432.92,1041Z"/><path class="cls-6" d="M444,1027a4,4,0,0,1,4.95,0,3.12,3.12,0,0,1,0,4.46,4,4,0,0,1-4.95,0,3.14,3.14,0,0,1,0-4.46Zm4.95,11.09v30.19h-5V1038.1Z"/><path class="cls-6" d="M484.49,1054.27H460.34c.11,3.44,1.09,6,2.94,7.75a9.65,9.65,0,0,0,6.8,2.59,9.78,9.78,0,0,0,6.07-1.85,7.65,7.65,0,0,0,3-4.92h5.34a12.62,12.62,0,0,1-7.37,9.46,16.26,16.26,0,0,1-6.82,1.38,15.59,15.59,0,0,1-7.7-1.87,13.27,13.27,0,0,1-5.26-5.37,17,17,0,0,1-1.89-8.22,17.2,17.2,0,0,1,1.89-8.25,13.2,13.2,0,0,1,5.26-5.39,15.49,15.49,0,0,1,7.7-1.87,15.16,15.16,0,0,1,7.67,1.87,12.87,12.87,0,0,1,5,5,14,14,0,0,1,1.74,6.93A15.54,15.54,0,0,1,484.49,1054.27Zm-5.94-8a8,8,0,0,0-3.47-3.36,10.59,10.59,0,0,0-4.78-1.1,9.88,9.88,0,0,0-6.93,2.56c-1.87,1.7-2.88,4.21-3,7.51h19.31A10.29,10.29,0,0,0,478.55,1046.24Z"/><path class="cls-6" d="M515.67,1041q3.24,3.39,3.25,9.77v17.54h-5v-17.1q0-4.51-2.31-6.93a8.23,8.23,0,0,0-6.27-2.42,8.6,8.6,0,0,0-6.6,2.66q-2.48,2.67-2.47,7.79v16h-5V1038.1h5v7.15a10.28,10.28,0,0,1,4.09-5.67,11.89,11.89,0,0,1,6.8-2A11.27,11.27,0,0,1,515.67,1041Z"/><path class="cls-6" d="M541,1063.89v4.4h-3.74c-3.08,0-5.39-.73-6.91-2.2s-2.28-3.92-2.28-7.37v-16.28h-4.51v-4.34h4.51v-7.54h5.06v7.54H541v4.34h-7.81v16.39c0,1.94.36,3.27,1.07,4a5.22,5.22,0,0,0,3.72,1.07Z"/><path class="cls-6" d="M568.61,1039.58A13.44,13.44,0,0,1,574,1045a16.77,16.77,0,0,1,2,8.25,16.6,16.6,0,0,1-2,8.22,13.52,13.52,0,0,1-5.39,5.37,17.14,17.14,0,0,1-15.57,0,13.65,13.65,0,0,1-5.42-5.37,16.5,16.5,0,0,1-2-8.22,16.67,16.67,0,0,1,2-8.25,13.58,13.58,0,0,1,5.42-5.39,17.14,17.14,0,0,1,15.57,0Zm-12.76,3.74a9.15,9.15,0,0,0-3.69,3.71,12.56,12.56,0,0,0-1.4,6.19,12.4,12.4,0,0,0,1.4,6.13,9.18,9.18,0,0,0,3.69,3.72,10.83,10.83,0,0,0,9.95,0,9.18,9.18,0,0,0,3.69-3.72,12.4,12.4,0,0,0,1.4-6.13,12.56,12.56,0,0,0-1.4-6.19,9.15,9.15,0,0,0-3.69-3.71,10.83,10.83,0,0,0-9.95,0Z"/><path class="cls-6" d="M623.63,1054.27H599.49c.11,3.44,1.09,6,2.94,7.75a9.62,9.62,0,0,0,6.79,2.59,9.81,9.81,0,0,0,6.08-1.85,7.65,7.65,0,0,0,3-4.92h5.33a12.56,12.56,0,0,1-7.37,9.46,16.23,16.23,0,0,1-6.82,1.38,15.65,15.65,0,0,1-7.7-1.87,13.31,13.31,0,0,1-5.25-5.37,17,17,0,0,1-1.9-8.22,17.21,17.21,0,0,1,1.9-8.25,13.24,13.24,0,0,1,5.25-5.39,15.54,15.54,0,0,1,7.7-1.87,15.2,15.2,0,0,1,7.68,1.87,12.87,12.87,0,0,1,5,5,14,14,0,0,1,1.73,6.93A14.64,14.64,0,0,1,623.63,1054.27Zm-5.94-8a8,8,0,0,0-3.46-3.36,10.6,10.6,0,0,0-4.79-1.1,9.88,9.88,0,0,0-6.93,2.56c-1.87,1.7-2.87,4.21-3,7.51h19.3A10.2,10.2,0,0,0,617.69,1046.24Z"/><path class="cls-6" d="M654.82,1041q3.24,3.39,3.24,9.77v17.54h-5v-17.1q0-4.51-2.31-6.93a8.23,8.23,0,0,0-6.27-2.42,8.6,8.6,0,0,0-6.6,2.66q-2.48,2.67-2.48,7.79v16h-5V1038.1h5v7.15a10.3,10.3,0,0,1,4.1-5.67,11.88,11.88,0,0,1,6.79-2A11.31,11.31,0,0,1,654.82,1041Z"/><path class="cls-6" d="M684.35,1027.59v40.7h-5v-40.7Z"/><path class="cls-6" d="M712.21,1039.91a11.41,11.41,0,0,1,4.26,5.89v-7.7h5v30.19h-5v-7.7a11.41,11.41,0,0,1-4.26,5.89,12.44,12.44,0,0,1-7.45,2.2,13.74,13.74,0,0,1-7.15-1.87,13,13,0,0,1-4.92-5.37,17.73,17.73,0,0,1-1.79-8.22,17.91,17.91,0,0,1,1.79-8.25,12.88,12.88,0,0,1,4.92-5.39,13.65,13.65,0,0,1,7.15-1.87A12.37,12.37,0,0,1,712.21,1039.91Zm-13.42,5.2q-2.77,2.94-2.78,8.11t2.78,8.11a9.67,9.67,0,0,0,7.4,3,10.25,10.25,0,0,0,5.31-1.38,9.63,9.63,0,0,0,3.65-3.88,12.25,12.25,0,0,0,1.32-5.8,12.43,12.43,0,0,0-1.32-5.83,9.38,9.38,0,0,0-3.65-3.88,10.43,10.43,0,0,0-5.31-1.34A9.7,9.7,0,0,0,698.79,1045.11Z"/><path class="cls-6" d="M766,1040.79a13.05,13.05,0,0,1,4.68,8.25h-5.28a7.76,7.76,0,0,0-3-5.09,9.87,9.87,0,0,0-6.08-1.84,9.68,9.68,0,0,0-4.81,1.21A8.79,8.79,0,0,0,748,1047a15.17,15.17,0,0,0,0,12.38,8.79,8.79,0,0,0,3.49,3.71,10.53,10.53,0,0,0,10.89-.66,7.85,7.85,0,0,0,3-5.11h5.28a13,13,0,0,1-4.68,8.27,14.76,14.76,0,0,1-9.57,3.06,15.65,15.65,0,0,1-7.7-1.87,13.25,13.25,0,0,1-5.25-5.37,16.92,16.92,0,0,1-1.9-8.22,17.09,17.09,0,0,1,1.9-8.25,13.18,13.18,0,0,1,5.25-5.39,15.54,15.54,0,0,1,7.7-1.87A14.71,14.71,0,0,1,766,1040.79Z"/><path class="cls-6" d="M798.67,1039.58a13.38,13.38,0,0,1,5.39,5.39,16.77,16.77,0,0,1,2,8.25,16.6,16.6,0,0,1-2,8.22,13.46,13.46,0,0,1-5.39,5.37,17.14,17.14,0,0,1-15.57,0,13.63,13.63,0,0,1-5.41-5.37,16.4,16.4,0,0,1-2-8.22,16.57,16.57,0,0,1,2-8.25,13.55,13.55,0,0,1,5.41-5.39,17.14,17.14,0,0,1,15.57,0Zm-12.76,3.74a9.15,9.15,0,0,0-3.69,3.71,12.56,12.56,0,0,0-1.4,6.19,12.4,12.4,0,0,0,1.4,6.13,9.18,9.18,0,0,0,3.69,3.72,10.83,10.83,0,0,0,10,0,9.12,9.12,0,0,0,3.69-3.72,12.4,12.4,0,0,0,1.4-6.13,12.56,12.56,0,0,0-1.4-6.19,9.09,9.09,0,0,0-3.69-3.71,10.83,10.83,0,0,0-10,0Z"/><path class="cls-6" d="M858.18,1041q3.21,3.39,3.22,9.77v17.54h-5v-17.1c0-3-.72-5.25-2.17-6.82a7.7,7.7,0,0,0-6-2.37,8.19,8.19,0,0,0-6.35,2.61c-1.6,1.74-2.39,4.3-2.39,7.68v16h-5v-17.1c0-3-.73-5.25-2.2-6.82a7.72,7.72,0,0,0-5.94-2.37,8.28,8.28,0,0,0-6.41,2.61q-2.38,2.61-2.39,7.68v16h-5V1038.1h5V1045a9.77,9.77,0,0,1,3.93-5.47,12.28,12.28,0,0,1,13.2,0,10.64,10.64,0,0,1,4,5.75,10.88,10.88,0,0,1,4.23-5.69,11.7,11.7,0,0,1,6.71-2A11.21,11.21,0,0,1,858.18,1041Z"/><path class="cls-6" d="M896,1038.1v30.19h-5v-7.09a10.11,10.11,0,0,1-4.09,5.63,12,12,0,0,1-6.85,2,11.19,11.19,0,0,1-8.47-3.39q-3.24-3.37-3.24-9.7v-17.6h5v17.1q0,4.52,2.31,7a8.22,8.22,0,0,0,6.27,2.45,8.57,8.57,0,0,0,6.6-2.67q2.47-2.67,2.47-7.78V1038.1Z"/><path class="cls-6" d="M928.44,1041q3.24,3.39,3.24,9.77v17.54h-5v-17.1q0-4.51-2.31-6.93a8.23,8.23,0,0,0-6.27-2.42,8.6,8.6,0,0,0-6.6,2.66q-2.47,2.67-2.48,7.79v16h-5V1038.1h5v7.15a10.3,10.3,0,0,1,4.1-5.67,11.88,11.88,0,0,1,6.79-2A11.3,11.3,0,0,1,928.44,1041Z"/><path class="cls-6" d="M939.44,1027a4,4,0,0,1,4.95,0,3.14,3.14,0,0,1,0,4.46,4,4,0,0,1-4.95,0,3.12,3.12,0,0,1,0-4.46Zm4.95,11.09v30.19h-5V1038.1Z"/><path class="cls-6" d="M975.35,1040.79A13.05,13.05,0,0,1,980,1049h-5.28a7.76,7.76,0,0,0-3-5.09,9.87,9.87,0,0,0-6.08-1.84,9.68,9.68,0,0,0-4.81,1.21,8.79,8.79,0,0,0-3.49,3.71,15.17,15.17,0,0,0,0,12.38,8.79,8.79,0,0,0,3.49,3.71,10.53,10.53,0,0,0,10.89-.66,7.85,7.85,0,0,0,3-5.11H980a13,13,0,0,1-4.68,8.27,14.76,14.76,0,0,1-9.57,3.06,15.65,15.65,0,0,1-7.7-1.87,13.31,13.31,0,0,1-5.25-5.37,17,17,0,0,1-1.9-8.22,17.21,17.21,0,0,1,1.9-8.25,13.24,13.24,0,0,1,5.25-5.39,15.54,15.54,0,0,1,7.7-1.87A14.71,14.71,0,0,1,975.35,1040.79Z"/><path class="cls-6" d="M1006.4,1039.91a11.41,11.41,0,0,1,4.26,5.89v-7.7h5v30.19h-5v-7.7a11.41,11.41,0,0,1-4.26,5.89,12.44,12.44,0,0,1-7.45,2.2,13.74,13.74,0,0,1-7.15-1.87,13,13,0,0,1-4.92-5.37,17.73,17.73,0,0,1-1.79-8.22,17.91,17.91,0,0,1,1.79-8.25,12.88,12.88,0,0,1,4.92-5.39,13.65,13.65,0,0,1,7.15-1.87A12.37,12.37,0,0,1,1006.4,1039.91Zm-13.42,5.2q-2.78,2.94-2.78,8.11t2.78,8.11a9.67,9.67,0,0,0,7.4,3,10.25,10.25,0,0,0,5.31-1.38,9.63,9.63,0,0,0,3.65-3.88,12.25,12.25,0,0,0,1.32-5.8,12.43,12.43,0,0,0-1.32-5.83,9.38,9.38,0,0,0-3.65-3.88,10.43,10.43,0,0,0-5.31-1.34A9.7,9.7,0,0,0,993,1045.11Z"/><path class="cls-6" d="M1046.58,1040.79a13,13,0,0,1,4.67,8.25H1046a7.71,7.71,0,0,0-3-5.09,9.89,9.89,0,0,0-6.08-1.84,9.65,9.65,0,0,0-4.81,1.21,8.81,8.81,0,0,0-3.5,3.71,15.17,15.17,0,0,0,0,12.38,8.81,8.81,0,0,0,3.5,3.71,10.53,10.53,0,0,0,10.89-.66,7.8,7.8,0,0,0,3-5.11h5.28a12.92,12.92,0,0,1-4.67,8.27,14.76,14.76,0,0,1-9.57,3.06,15.59,15.59,0,0,1-7.7-1.87,13.19,13.19,0,0,1-5.25-5.37,16.92,16.92,0,0,1-1.9-8.22,17.09,17.09,0,0,1,1.9-8.25,13.12,13.12,0,0,1,5.25-5.39,15.49,15.49,0,0,1,7.7-1.87A14.71,14.71,0,0,1,1046.58,1040.79Z"/><path class="cls-6" d="M1057.85,1027a4,4,0,0,1,5,0,3.12,3.12,0,0,1,0,4.46,4,4,0,0,1-5,0,3.14,3.14,0,0,1,0-4.46Zm5,11.09v30.19h-5V1038.1Z"/><path class="cls-6" d="M1092.31,1039.58a13.38,13.38,0,0,1,5.39,5.39,16.77,16.77,0,0,1,2,8.25,16.6,16.6,0,0,1-2,8.22,13.46,13.46,0,0,1-5.39,5.37,17.12,17.12,0,0,1-15.56,0,13.59,13.59,0,0,1-5.42-5.37,16.4,16.4,0,0,1-2-8.22,16.57,16.57,0,0,1,2-8.25,13.51,13.51,0,0,1,5.42-5.39,17.12,17.12,0,0,1,15.56,0Zm-12.76,3.74a9.07,9.07,0,0,0-3.68,3.71,12.46,12.46,0,0,0-1.41,6.19,12.3,12.3,0,0,0,1.41,6.13,9.1,9.1,0,0,0,3.68,3.72,10.85,10.85,0,0,0,10,0,9.1,9.1,0,0,0,3.68-3.72,12.3,12.3,0,0,0,1.4-6.13,12.46,12.46,0,0,0-1.4-6.19,9.07,9.07,0,0,0-3.68-3.71,10.85,10.85,0,0,0-10,0Zm14-14-11.72,6.43v-3.57l11.72-6.93Z"/><path class="cls-6" d="M1130.62,1041q3.24,3.39,3.24,9.77v17.54h-5v-17.1q0-4.51-2.31-6.93a8.23,8.23,0,0,0-6.27-2.42,8.6,8.6,0,0,0-6.6,2.66q-2.48,2.67-2.48,7.79v16h-5V1038.1h5v7.15a10.3,10.3,0,0,1,4.1-5.67,11.86,11.86,0,0,1,6.79-2A11.31,11.31,0,0,1,1130.62,1041Z"/><path class="cls-6" d="M1166.86,1063l9.35-24.86h5.39l-11.82,30.19h-5.94L1152,1038.1h5.39Z"/><path class="cls-6" d="M1186.55,1027a4,4,0,0,1,5,0,3.12,3.12,0,0,1,0,4.46,4,4,0,0,1-5,0,3.14,3.14,0,0,1,0-4.46Zm5,11.09v30.19h-5V1038.1Z"/><path class="cls-6" d="M1208.88,1039.33a13,13,0,0,1,6.82-1.73v5.45h-1.54a10.7,10.7,0,0,0-6.93,2.17q-2.7,2.17-2.7,7.18v15.89h-5V1038.1h5v6.1A11.13,11.13,0,0,1,1208.88,1039.33Z"/><path class="cls-6" d="M1235.06,1063.89v4.4h-3.74q-4.62,0-6.9-2.2c-1.52-1.47-2.28-3.92-2.28-7.37v-16.28h-4.51v-4.34h4.51v-7.54h5v7.54H1235v4.34h-7.82v16.39q0,2.91,1.08,4a5.17,5.17,0,0,0,3.71,1.07Z"/><path class="cls-6" d="M1268,1038.1v30.19h-5v-7.09a10.17,10.17,0,0,1-4.1,5.63,12,12,0,0,1-6.85,2,11.21,11.21,0,0,1-8.47-3.39q-3.24-3.37-3.24-9.7v-17.6h5v17.1q0,4.52,2.31,7a8.22,8.22,0,0,0,6.27,2.45,8.57,8.57,0,0,0,6.6-2.67q2.48-2.67,2.48-7.78V1038.1Z"/><path class="cls-6" d="M1295.86,1039.91a11.41,11.41,0,0,1,4.26,5.89v-7.7h5v30.19h-5v-7.7a11.41,11.41,0,0,1-4.26,5.89,12.44,12.44,0,0,1-7.45,2.2,13.74,13.74,0,0,1-7.15-1.87,13,13,0,0,1-4.92-5.37,17.73,17.73,0,0,1-1.79-8.22,17.91,17.91,0,0,1,1.79-8.25,12.88,12.88,0,0,1,4.92-5.39,13.65,13.65,0,0,1,7.15-1.87A12.37,12.37,0,0,1,1295.86,1039.91Zm-13.42,5.2q-2.78,2.94-2.78,8.11t2.78,8.11a9.67,9.67,0,0,0,7.4,3,10.25,10.25,0,0,0,5.31-1.38,9.63,9.63,0,0,0,3.65-3.88,12.25,12.25,0,0,0,1.32-5.8,12.43,12.43,0,0,0-1.32-5.83,9.38,9.38,0,0,0-3.65-3.88,10.43,10.43,0,0,0-5.31-1.34A9.7,9.7,0,0,0,1282.44,1045.11Z"/><path class="cls-6" d="M1318.11,1027.59v40.7h-5v-40.7Z"/><line class="cls-7" x1="105.32" y1="955.76" x2="105.32" y2="1060.92"/><text class="cls-4" transform="translate(105.32 1197.06)">ASOCIACIÓN MUTUAL ESLOVENA EN CÓRDOBA<tspan class="cls-5"><tspan x="0" y="96">COMMUNITY MANAGER</tspan></tspan></text><line class="cls-7" x1="128.12" y1="1353.41" x2="128.12" y2="1592.02"/><text class="cls-8" transform="translate(163.18 1394.01)">Diseño de las diferentes gráficas para las redes sociales(Facebook),<tspan x="0" y="66">a fin de comunicar las diferentes actividades que se realizan.</tspan><tspan x="0" y="132">Asesoramiento en la comunicación virtual.</tspan><tspan x="0" y="198">Responsable de la gestión en comunicación.</tspan></text><text class="cls-4" transform="translate(105.32 1734.79)">IRONY CLOTHING<tspan class="cls-5"><tspan x="0" y="96">COMMUNITY MANAGER</tspan></tspan></text><line class="cls-7" x1="128.12" y1="1891.14" x2="128.12" y2="1931.74"/><text class="cls-8" transform="translate(163.18 1931.74)">Responsable de fotografía e imagen visual de la marca.</text><text class="cls-4" transform="translate(105.32 2069.52)">DINO VALENTINI<tspan class="cls-5"><tspan x="0" y="96">FOTÓGRAFO</tspan></tspan></text><text class="cls-8" transform="translate(170.19 2283.54)">Responsable de la fotografía en mural de nuevo edificio comercial (Ex Clínica del Sol).</text><line class="cls-7" x1="128.12" y1="2244.68" x2="128.12" y2="2283.54"/><text class="cls-4" transform="translate(105.32 2412.8)">COLEGIO DANTE ALIGHIERI<tspan class="cls-5"><tspan x="0" y="96">FOTÓGRAFO</tspan></tspan></text><text class="cls-8" transform="translate(170.19 2587.2)">Responsable de la fotografía de la fínal de básquet de la categoría U16.<tspan x="0" y="66">Responsable de la fotografía del evento de final de año deportivo de la institución</tspan></text><line class="cls-7" x1="128.12" y1="2549.03" x2="128.12" y2="2653.05"/><text class="cls-4" transform="translate(102.32 239.81)">PASTAS ALROCC</text><text class="cls-8" transform="translate(160.18 400.86)">A cargo del rebranding de la marca<tspan x="0" y="66">(logo y packaging)</tspan></text><line class="cls-7" x1="102.32" y1="362.84" x2="102.32" y2="469.53"/><text class="cls-9" transform="translate(102.32 337.39)">Rebranding</text></g></g></svg>